<?xml version="1.0" encoding="utf-8"?>
<!-- Generator: Adobe Illustrator 16.0.4, SVG Export Plug-In . SVG Version: 6.00 Build 0)  -->
<!DOCTYPE svg PUBLIC "-//W3C//DTD SVG 1.1//EN" "http://www.w3.org/Graphics/SVG/1.1/DTD/svg11.dtd">
<svg version="1.1" id="Layer_1" xmlns="http://www.w3.org/2000/svg" xmlns:xlink="http://www.w3.org/1999/xlink" x="0px" y="0px"
	 width="417.782px" height="89.691px" viewBox="0 0 417.782 89.691" enable-background="new 0 0 417.782 89.691"
	 xml:space="preserve">
<g>
	<path fill="#B22E26" d="M89.668,46.153c0.214,10.532-3.9,20.783-11.888,29.308c-9.407,10.038-21.155,14.765-35.009,14.182
		c-11.573-0.485-21.436-4.871-29.59-12.95C4.836,68.426,0.45,58.272,0.03,46.527C-0.929,19.71,20.989-0.341,45.038,0.005
		c12.343,0.178,22.922,4.461,31.608,13.178C85.341,21.901,89.78,32.464,89.668,46.153z M29.423,50.56
		c0.129-0.417,0.162-0.696,0.291-0.919c1.354-2.334,2.715-4.666,4.099-6.982c0.771-1.295,1.438-1.35,2.257-0.13
		c0.828,1.233,1.566,2.528,2.307,3.818c2.06,3.587,4.091,7.189,6.147,10.777c1.71,2.979,3.432,5.955,5.165,8.922
		c0.508,0.869,1.11,1.696,2.254,1.702c2.559,0.013,5.118,0.013,7.676-0.043c0.967-0.021,1.218-0.578,0.732-1.445
		c-1.448-2.585-2.875-5.182-4.37-7.739c-3.237-5.532-6.534-11.027-9.763-16.565c-2.146-3.682-4.197-7.414-6.325-11.104
		c-1.221-2.119-2.461-4.229-3.786-6.281c-0.703-1.09-1.631-1.024-2.316,0.051c-0.881,1.38-1.748,2.77-2.569,4.186
		c-3.272,5.632-6.515,11.281-9.787,16.914c-3.963,6.818-7.948,13.624-11.919,20.439c-0.523,0.896-0.17,1.562,0.874,1.572
		c2.438,0.031,4.878,0.021,7.317,0.021c1.036-0.001,1.805-0.483,2.312-1.375c1.125-1.977,2.275-3.938,3.354-5.938
		c0.746-1.387,1.55-2.267,3.412-2.189c4.431,0.18,8.875,0.059,13.312,0.059c0.431,0,0.861,0,1.476,0
		c-0.126-0.454-0.155-0.763-0.29-1.014c-0.905-1.673-1.887-3.31-2.734-5.008c-0.613-1.229-1.471-1.709-2.844-1.614
		c-1.551,0.106-3.117,0.032-4.676,0.015C30.531,50.68,30.033,50.61,29.423,50.56z M61.963,23.993c0-0.004,0-0.01,0-0.014
		c-5.634,0-11.267-0.01-16.899,0.021c-0.422,0.003-0.964,0.173-1.217,0.466c-0.142,0.162,0.132,0.781,0.334,1.127
		c1.157,1.986,2.331,3.963,3.549,5.912c0.2,0.32,0.643,0.698,0.974,0.699c8.829,0.038,17.657,0.035,26.487,0.009
		c0.319-0.001,0.781-0.212,0.936-0.47c1.201-2.01,2.354-4.045,3.501-6.084c0.787-1.4,0.632-1.659-1.005-1.662
		C73.07,23.989,67.517,23.993,61.963,23.993z M51.675,37.853c1.564,2.599,2.955,4.971,4.429,7.287
		c0.269,0.423,0.874,0.882,1.333,0.894c3.354,0.072,6.712,0.064,10.067,0.002c0.461-0.011,1.091-0.362,1.339-0.75
		c1.107-1.742,2.118-3.55,3.137-5.348c0.357-0.633,0.635-1.311,1.006-2.085C65.766,37.853,58.839,37.853,51.675,37.853z"/>
	<path fill="#B22E26" d="M311.401,68.045c-2.898-0.3-5.566-0.429-8.18-0.88c-4.351-0.751-8.396-2.354-11.566-5.527
		c-1.979-1.979-3.541-4.354-4.494-7.009c-1.211-3.373-2.066-6.853-1.711-10.487c0.375-3.842,1.324-7.521,3.432-10.822
		c1.662-2.604,3.742-4.836,6.467-6.332c2.33-1.278,4.826-2.07,7.477-2.604c3.498-0.699,6.99-1.117,10.525-0.943
		c2.117,0.104,4.236,0.496,6.316,0.938c2.061,0.438,4.152,0.907,6.092,1.709c3.715,1.537,6.459,4.277,8.52,7.703
		c2.012,3.341,3.027,7.029,3.154,10.864c0.076,2.294-0.592,4.604-0.838,6.915c-0.246,2.292-1.217,4.3-2.363,6.222
		c-2.078,3.486-4.941,6.221-8.752,7.646c-2.41,0.901-5.01,1.341-7.559,1.809C315.698,67.651,313.432,67.804,311.401,68.045z
		 M311.553,32.172c0,0.007,0,0.015,0,0.021c-1.119,0-2.238,0.03-3.357-0.007c-2.42-0.08-4.645,0.812-6.613,1.935
		c-4.021,2.285-5.781,6.154-6.172,10.623c-0.121,1.382,0.293,2.812,0.498,4.22c0.438,3.021,2.041,5.354,4.311,7.316
		c2.635,2.281,5.922,2.695,9.145,3.011c2.145,0.208,4.361-0.11,6.52-0.405c1.607-0.221,3.311-0.512,4.729-1.239
		c4.369-2.232,6.447-6.119,6.912-10.857c0.146-1.503-0.164-3.078-0.438-4.592c-0.465-2.559-1.781-4.805-3.631-6.495
		c-2.555-2.335-5.709-3.577-9.266-3.528C313.311,32.182,312.432,32.172,311.553,32.172z"/>
	<path fill="#B22E26" d="M212.868,67.33c-2.355,0-4.626,0.014-6.896-0.003c-3.896-0.028-3.867-0.06-6.188-3.129
		c-2.002-2.65-4.098-5.229-6.119-7.865c-2.549-3.324-5.061-6.677-7.6-10.01c-0.418-0.551-0.891-1.057-1.512-1.782
		c0.635-0.058,1.045-0.12,1.455-0.122c2.52-0.016,5.039,0.033,7.557-0.027c3.205-0.076,6.152-0.899,8.031-3.732
		c1.771-2.676,1.602-7.049-2.623-8.529c-2.144-0.75-4.271-1.062-6.502-1.038c-2.64,0.028-5.277-0.007-7.918,0.013
		c-2.183,0.018-3.265,1.107-3.267,3.307c-0.008,10.354-0.006,20.712-0.008,31.066c0,1.74-0.005,1.743-1.761,1.745
		c-2,0.003-4,0.004-5.998-0.002c-1.348-0.005-1.571-0.231-1.572-1.618c-0.004-9.636-0.002-19.271-0.002-28.909
		c0-3.196-0.004-6.396,0.005-9.597c0.006-1.883,1.269-3.225,3.159-3.229c6.718-0.019,13.449-0.247,20.146,0.122
		c3.422,0.19,6.904,0.84,10.113,2.566c2.846,1.534,5.164,3.393,6.246,6.461c0.852,2.409,1.111,4.844,0.449,7.456
		c-0.801,3.168-2.715,5.339-5.354,6.871c-1.664,0.967-3.593,1.521-5.453,2.091c-1.177,0.359-1.412,0.65-0.629,1.668
		c2,2.594,4.039,5.155,6.045,7.743c2.055,2.653,4.088,5.322,6.127,7.987C212.84,66.884,212.825,66.979,212.868,67.33z"/>
	<path fill="#B22E26" d="M151.918,67.273c-3.311,0-6.381,0.027-9.449-0.032c-0.371-0.01-0.867-0.414-1.076-0.771
		c-1.547-2.631-3.018-5.306-4.547-7.946c-1.563-2.697-3.182-5.365-4.748-8.062c-1.433-2.463-2.822-4.949-4.248-7.416
		c-0.235-0.408-0.518-0.814-0.86-1.132c-0.613-0.565-1.487-0.409-1.912,0.312c-1.429,2.438-2.854,4.88-4.258,7.333
		c-0.492,0.86-0.075,1.545,0.938,1.559c1.719,0.021,3.448,0.127,5.153-0.025c1.524-0.136,2.424,0.405,3.082,1.741
		c0.683,1.385,1.537,2.684,2.287,4.036c0.123,0.224,0.097,0.527,0.166,0.957c-0.541,0.03-0.999,0.082-1.457,0.082
		c-4.438,0.006-8.876,0.028-13.313-0.018c-1.271-0.014-2.031,0.506-2.623,1.6c-1.287,2.375-2.648,4.711-4.023,7.035
		c-0.192,0.325-0.631,0.709-0.961,0.717c-3.109,0.054-6.219,0.03-9.615,0.03c0.791-1.413,1.465-2.623,2.146-3.829
		c1.59-2.815,3.15-5.649,4.785-8.441c1.575-2.691,3.264-5.317,4.838-8.01c1.917-3.277,3.749-6.604,5.648-9.895
		c1.603-2.771,3.252-5.52,4.871-8.283c0.803-1.369,1.521-2.795,2.392-4.119c0.731-1.116,1.342-1.161,2.094-0.093
		c1.031,1.47,1.914,3.044,2.813,4.601c2.091,3.605,4.146,7.232,6.229,10.844c1.817,3.15,3.65,6.293,5.486,9.433
		c2.938,5.026,5.891,10.043,8.816,15.075C151.037,65.351,151.397,66.21,151.918,67.273z"/>
	<path fill="#B22E26" d="M367.12,57.831c-0.742,0.035-1.213,0.076-1.68,0.076c-4.479,0.004-8.959,0.024-13.438-0.021
		c-1.123-0.012-1.818,0.377-2.369,1.366c-1.338,2.395-2.748,4.749-4.199,7.076c-0.27,0.43-0.863,0.913-1.32,0.927
		c-2.838,0.085-5.678,0.046-8.518,0.037c-0.184-0.001-0.367-0.088-0.662-0.163c1.137-2.054,2.207-4.038,3.328-5.995
		c1.332-2.328,2.719-4.624,4.061-6.947c2.732-4.736,5.432-9.499,8.188-14.224c1.564-2.686,3.256-5.295,4.824-7.979
		c1.209-2.062,2.27-4.213,3.49-6.266c0.418-0.7,1.137-1.223,1.717-1.827c0.566,0.556,1.271,1.022,1.684,1.677
		c1.834,2.936,3.635,5.893,5.355,8.895c2.506,4.369,4.906,8.797,7.395,13.176c1.846,3.248,3.748,6.466,5.641,9.688
		c1.742,2.963,3.514,5.908,5.254,8.874c0.148,0.255,0.178,0.581,0.336,1.118c-0.861,0-1.562,0.003-2.266,0
		c-1.799-0.002-3.617-0.163-5.393,0.038c-1.805,0.206-2.75-0.625-3.527-2.03c-1.709-3.1-3.434-6.188-5.195-9.259
		c-2.1-3.651-4.246-7.276-6.367-10.92c-0.467-0.799-0.834-1.661-1.373-2.404c-0.344-0.475-0.9-1.055-1.389-1.076
		c-0.451-0.021-1.09,0.533-1.385,1c-1.457,2.309-2.834,4.668-4.229,7.017c-0.445,0.751-0.062,1.406,0.875,1.423
		c2,0.035,4.002,0.078,5.996-0.003c1.016-0.041,1.604,0.276,2.07,1.183C364.95,54.082,365.989,55.82,367.12,57.831z"/>
	<path fill="#B22E26" d="M243.184,41.796c-0.924,1.979-1.89,3.727-2.555,5.578c-0.535,1.48-1.521,1.522-2.777,1.504
		c-3.158-0.052-6.316-0.021-9.476-0.02c-1.672,0.002-1.903,0.221-1.909,1.952c-0.017,4.798,0.012,9.598-0.017,14.396
		c-0.015,2.236,0.405,2.085-2.125,2.104c-2.229,0.021-4.459,0.004-6.854,0.004c0-0.658,0-1.166,0-1.671
		c-0.002-12.995-0.004-25.987-0.006-38.982c0-1.823,0.926-2.77,2.817-2.78c3.438-0.023,6.877-0.004,10.315-0.008
		c7.037-0.012,14.074-0.022,21.111-0.033c0.428-0.001,0.854,0,1.592,0c-0.529,1.266-0.938,2.32-1.406,3.348
		c-0.487,1.072-1.146,2.08-1.52,3.188c-0.262,0.775-0.744,0.711-1.285,0.713c-3.359,0.01-6.717,0.008-10.076,0.01
		c-3.119,0.003-6.238-0.013-9.354,0.016c-1.916,0.017-3.062,1.062-3.138,2.968c-0.08,2.035-0.028,4.075-0.021,6.111
		c0.007,1.027,0.507,1.484,1.57,1.481c4.521-0.014,9.036,0.02,13.555,0.041C242.088,41.718,242.544,41.762,243.184,41.796z"/>
	<path fill="#B22E26" d="M417.721,31.052c-0.746,0.035-1.336,0.086-1.924,0.086c-4.48,0.008-8.957,0.039-13.438-0.017
		c-1.312-0.019-1.828,0.56-1.82,1.841c0.043,10.915,0.023,21.831,0.02,32.746c0,1.559-0.004,1.576-1.557,1.594
		c-1.959,0.022-3.918,0.02-5.877,0.014c-1.662-0.006-1.674-0.016-1.674-1.654c-0.004-8.836-0.002-17.675-0.002-26.512
		c0-2.039-0.002-4.077-0.014-6.115c-0.01-1.66-0.236-1.891-1.869-1.891c-4.396-0.004-8.797,0-13.191,0c-0.598,0-1.188,0-1.945,0
		c0-1.984-0.166-3.862,0.068-5.688c0.117-0.94,1.131-1.559,2.215-1.593c1.158-0.033,2.316-0.021,3.479-0.021
		c11.438-0.001,22.871,0.031,34.307-0.033c1.91-0.01,3.521,1.182,3.254,3.237C417.583,28.33,417.721,29.657,417.721,31.052z"/>
	<path fill="#B22E26" d="M255.346,45.065c0-6.557,0-13.111,0-19.67c0-1.555,0.002-1.558,1.604-1.559
		c1.959-0.002,3.922,0.076,5.875-0.023c1.391-0.068,1.844,0.424,1.838,1.916c-0.016,3.479,0,6.956,0.002,10.436
		c0,7.037,0.061,14.072-0.033,21.106c-0.027,2.075,1.188,2.898,2.883,2.873c4.314-0.062,8.635-0.061,12.953-0.005
		c2.141,0.027,4.279,0.229,6.422,0.352c0.812,0.047,1.09,0.579,1.101,1.286c0.019,1.439-0.024,2.879,0.006,4.317
		c0.021,0.875-0.354,1.228-1.215,1.218c-1.679-0.021-3.356,0.006-5.037,0.007c-7.597,0.005-15.19,0.01-22.787,0.011
		c-0.399,0-0.801-0.013-1.198-0.041c-1.713-0.127-2.398-0.848-2.4-2.554c-0.004-6.557-0.002-13.111-0.002-19.67
		C255.35,45.065,255.348,45.065,255.346,45.065z"/>
	<path fill="#B22E26" d="M155.844,67.249c-0.029-0.624-0.068-1.093-0.068-1.562c-0.006-13.274-0.008-26.553-0.008-39.829
		c0-1.666,0.181-1.827,1.881-1.812c1.921,0.016,3.84-0.01,5.759,0.021c1.349,0.022,1.683,0.395,1.685,1.75
		c0.004,13.316-0.005,26.636,0.021,39.95c0.002,1.054-0.275,1.528-1.419,1.501C161.139,67.206,158.581,67.249,155.844,67.249z"/>
</g>
</svg>
