<?xml version="1.0" encoding="utf-8"?>
<!-- Generator: Adobe Illustrator 16.0.4, SVG Export Plug-In . SVG Version: 6.00 Build 0)  -->
<!DOCTYPE svg PUBLIC "-//W3C//DTD SVG 1.1//EN" "http://www.w3.org/Graphics/SVG/1.1/DTD/svg11.dtd">
<svg version="1.1" id="Layer_1" xmlns="http://www.w3.org/2000/svg" xmlns:xlink="http://www.w3.org/1999/xlink" x="0px" y="0px"
	 width="733.216px" height="734.709px" viewBox="0 0 733.216 734.709" enable-background="new 0 0 733.216 734.709"
	 xml:space="preserve">
<g>
	<path fill-rule="evenodd" clip-rule="evenodd" d="M685.819,425.253c-1.76,8.092-3.201,15.947-5.225,23.652
		c-1.996,7.6-4.572,15.049-6.932,22.678c0.354,0.877,1.273,1.348,2.059,1.928c7.631,5.623,15.27,11.229,22.912,16.832
		c1.119,0.82,2.203,1.57,3.717,1.74c1.904,0.215,2.699,1.408,2.654,3.357c-0.033,1.42-0.346,2.83-1.176,3.969
		c-2.814,3.859-4.076,8.41-5.803,12.746c-2.914,7.316-5.773,14.66-8.549,22.035c-1.02,2.713-2.754,4.848-4.811,6.746
		c-2.24,2.061-5,2.41-7.85,1.707c-5.42-1.338-10.814-2.777-16.215-4.193c-5.207-1.367-10.41-2.758-15.615-4.131
		c-0.281-0.074-0.588-0.07-0.859-0.102c-1.109,0.361-1.422,1.396-1.928,2.217c-6.029,9.775-12.635,19.148-19.629,28.25
		c-2.186,2.846-4.477,5.613-6.715,8.422c-0.363,0.459-0.686,0.947-1.125,1.561c0.572,0.854,1.088,1.686,1.666,2.475
		c5.484,7.482,10.924,14.996,16.508,22.404c1.363,1.816,1.848,3.682,1.723,5.842c-0.098,1.672-0.826,3.07-1.842,4.334
		c-1.629,2.02-3.281,4.018-4.934,6.016c-6.926,8.383-13.875,16.744-20.756,25.162c-1.023,1.254-2.068,1.975-3.748,2.014
		c-2.189,0.043-4.375,0.33-6.551,0.594c-1.473,0.178-2.686-0.234-3.928-1.033c-8.469-5.451-16.979-10.846-25.479-16.256
		c-1.25-0.795-2.512-1.578-3.848-2.418c-3.588,2.588-7.031,5.121-10.529,7.58c-3.432,2.404-6.885,4.773-10.385,7.076
		c-3.576,2.357-7.221,4.611-10.934,6.975c0.037,0.695,0.004,1.389,0.127,2.051c2.008,10.984,4.092,21.955,6.023,32.953
		c0.426,2.436,0.436,4.963,0.422,7.445c-0.018,2.832-1.533,4.379-4.066,5.174c-4.178,1.309-8.242,2.992-12.332,4.576
		c-7.533,2.916-15.047,5.873-22.57,8.816c-0.646,0.254-1.283,0.535-1.826,0.762c-0.197,0.25-0.361,0.391-0.432,0.564
		c-0.973,2.344-1.559,2.557-3.723,1.352c-1.252-0.695-2.156-1.717-2.996-2.861c-7.01-9.582-14.059-19.131-21.08-28.703
		c-2.127-2.898-1.797-2.838-5.357-1.713c-10.18,3.215-20.516,5.863-30.955,8.086c-0.775,0.166-1.545,0.383-2.307,0.605
		c-0.176,0.053-0.316,0.236-0.652,0.502c-0.234,2.506-0.496,5.174-0.727,7.844c-0.51,5.861-1.008,11.727-1.504,17.592
		c-0.275,3.277-0.57,6.557-0.789,9.84c-0.383,5.764-4.619,10.338-10.389,10.943c-6.844,0.719-13.703,1.312-20.557,1.945
		c-5.062,0.469-10.131,0.92-15.197,1.375c-0.596,0.055-1.193,0.129-1.791,0.129c-2.656,0.012-4.074-0.93-4.9-3.512
		c-0.482-1.51-0.684-3.107-1.023-4.664c-0.295-1.357-0.447-2.768-0.928-4.059c-3.664-9.912-7.398-19.801-11.111-29.699
		c-0.14-0.373-0.278-0.748-0.435-1.115c-0.346-0.816-0.973-1.229-1.854-1.271c-0.599-0.025-1.196-0.055-1.795-0.094
		c-6.967-0.461-13.946-0.781-20.895-1.432c-5.455-0.508-10.872-1.428-16.307-2.156c-0.585-0.078-1.179-0.105-1.941-0.172
		c-0.412,0.656-0.892,1.279-1.225,1.975c-4.494,9.35-8.969,18.705-13.453,28.059c-0.388,0.809-0.782,1.617-1.203,2.406
		c-2.054,3.846-6.086,5.135-9.872,3.061c-1.248-0.684-2.518-1.135-3.895-1.449c-7.58-1.732-15.149-3.514-22.723-5.281
		c-1.75-0.408-3.483-0.875-5.241-1.236c-1.462-0.299-2.939-0.543-4.423-0.695c-1.636-0.168-3.123-0.695-4.446-1.625
		c-2.268-1.596-3.122-4.184-1.793-6.566c1.088-1.953,1.26-3.908,1.248-6.02c-0.048-8.682-0.045-17.361-0.062-26.041
		c-0.002-0.598,0.007-1.199-0.007-1.797c-0.049-2.277-0.048-2.287-2.061-3.068c-2.883-1.121-5.779-2.207-8.652-3.348
		c-10.575-4.199-20.895-8.957-30.917-14.352c-0.96-0.516-1.941-0.99-3.019-1.537c-0.662,0.516-1.319,0.949-1.886,1.479
		c-6.41,6-12.817,11.998-19.195,18.029c-1.592,1.506-3.063,3.139-4.597,4.707c-0.557,0.57-1.097,1.164-1.7,1.678
		c-1.015,0.867-2.122,1.053-3.294,0.275c-0.417-0.275-0.901-0.465-1.265-0.795c-2.711-2.432-6.007-3.914-9.152-5.627
		c-8.406-4.586-16.845-9.107-25.27-13.658c-0.614-0.332-1.267-0.623-1.807-1.049c-0.445-0.352-0.874-0.824-1.096-1.334
		c-0.838-1.914-1.59-3.863-2.368-5.803c-0.221-0.555-0.445-1.111-0.619-1.684c-0.26-0.871-0.027-1.713,0.806-2.02
		c1.316-0.482,1.697-1.543,2.135-2.674c2.91-7.533,5.846-15.057,8.775-22.584c0.976-2.508,1.96-5.014,2.924-7.527
		c0.141-0.365,0.189-0.764,0.328-1.354c-2.562-2.566-5.421-4.893-8.054-7.453c-2.718-2.645-5.486-5.234-8.162-7.92
		c-2.603-2.619-5.12-5.32-7.667-7.99c-2.536-2.66-4.875-5.508-7.539-8.234c-1.11,0.506-2.11,0.918-3.07,1.408
		c-7.997,4.076-16.025,8.09-23.954,12.293c-2.788,1.477-5.646,1.871-8.668,1.662c-0.879-0.059-1.761-0.328-2.606-0.604
		c-1.2-0.396-2.174-1.197-2.468-2.422c-0.423-1.746-1.578-2.975-2.635-4.281c-6.895-8.535-13.78-17.08-20.732-25.57
		c-1.19-1.455-1.914-2.92-1.948-4.838c-0.036-1.986-0.272-3.984-0.588-5.949c-0.269-1.67,0.352-2.852,1.449-4.008
		c4.121-4.344,8.193-8.73,12.284-13.1c3.679-3.934,7.361-7.867,11.027-11.812c0.536-0.576,1-1.217,1.593-1.943
		c-0.399-0.932-0.726-1.863-1.181-2.727c-4.66-8.83-8.645-17.969-12.398-27.211c-0.333-0.818-0.721-1.613-1.102-2.461
		c-0.897,0-1.68-0.061-2.451,0.01c-11.425,1.047-22.851,2.088-34.271,3.193c-1.71,0.166-3.131-0.08-4.321-1.398
		c-0.665-0.734-1.438-1.377-2.169-2.053c-1.067-0.992-1.76-2.227-1.86-3.654c-0.17-2.445-1.081-4.652-1.948-6.883
		c-4.001-10.318-8.034-20.625-12.019-30.949c-0.426-1.105-0.719-2.283-0.897-3.457c-0.36-2.377,0.225-4.518,1.754-6.439
		c1.561-1.961,3.189-3.641,5.603-4.744c10.246-4.688,20.393-9.592,30.572-14.428c1.067-0.508,2.106-1.08,3.057-1.568
		c0.102-0.51,0.234-0.809,0.207-1.09c-0.693-7.748-1.445-15.49-2.087-23.242c-0.229-2.777-0.248-5.582-0.262-8.373
		c-0.005-1.408-0.575-2.162-1.887-2.652c-4.856-1.816-9.681-3.716-14.514-5.596c-5.484-2.132-10.968-4.266-16.438-6.43
		c-1.406-0.557-2.785-0.914-4.34-0.856c-2.161,0.085-2.919-0.503-3.249-2.679c-0.449-2.948-0.955-5.953-0.852-8.911
		c0.399-11.368,1.09-22.724,1.526-34.089c0.089-2.312,0.889-3.936,2.615-5.384c2.835-2.384,5.935-3.859,9.698-4.175
		c10.536-0.888,21.062-1.941,31.59-2.93c0.398-0.037,0.794-0.076,1.192-0.124c0.887-0.108,1.445-0.571,1.642-1.474
		c0.442-2.045,0.897-4.092,1.37-6.132c2.666-11.463,5.663-22.834,9.295-34.033c0.245-0.758,0.476-1.522,0.671-2.296
		c0.07-0.277,0.012-0.589,0.012-1.11c-0.836-0.643-1.759-1.384-2.718-2.077c-7.437-5.377-14.896-10.722-22.31-16.133
		c-1.848-1.348-3.554-2.894-5.314-4.362c-2.03-1.689-2.538-4.025-2.47-6.473c0.027-0.932,0.569-1.891,1.03-2.758
		c2.013-3.787,4.087-7.541,6.127-11.314c3.369-6.229,6.727-12.461,10.094-18.691c0.571-1.056,1.088-2.106,1.219-3.344
		c0.24-2.251,1.634-3.609,3.728-4.189c3.089-0.853,6.14-1.333,9.39-0.328c8.952,2.768,17.969,5.326,26.963,7.958
		c0.655,0.192,1.33,0.31,2.157,0.497c1.967-2.707,3.472-5.634,5.277-8.364c1.815-2.746,3.542-5.548,5.377-8.282
		c1.889-2.817,3.823-5.603,5.798-8.358c1.917-2.674,3.893-5.307,5.882-7.929c1.985-2.616,4.019-5.197,6.081-7.855
		c-0.321-0.704-0.539-1.363-0.896-1.938c-4.94-7.967-9.888-15.932-14.867-23.875c-0.524-0.834-1.238-1.549-1.875-2.31
		c-0.767-0.918-1.613-1.775-2.29-2.754c-0.503-0.725-0.888-1.569-1.149-2.414c-0.641-2.091-0.014-3.635,2.004-4.321
		c1.311-0.449,2.252-1.226,3.164-2.142c8.799-8.836,17.588-17.683,26.395-26.509c1.001-1.003,1.741-2.023,2.004-3.522
		c0.364-2.061,1.856-2.898,4.022-2.591c2.128,0.303,3.947,1.329,5.661,2.574c5.083,3.696,10.164,7.391,15.254,11.077
		c3.636,2.633,7.281,5.253,10.929,7.867c0.564,0.403,1.175,0.738,1.669,1.045c1.251,0.012,1.914-0.814,2.691-1.406
		c8.732-6.655,17.698-12.971,27.037-18.749c1.266-0.784,2.523-1.579,3.903-2.446c-0.12-0.823-0.151-1.611-0.358-2.349
		c-2.616-9.312-5.237-18.625-7.908-27.923c-0.748-2.603-1.348-5.215-1.375-7.93c-0.007-0.993,0.067-1.994,0.204-2.977
		c0.306-2.183,1.444-3.623,3.668-4.211c1.046-0.275,2.043-0.795,3.002-1.317c10.604-5.759,21.198-11.536,31.787-17.328
		c1.512-0.826,3.045-1.436,4.806-1.472c1.762-0.036,3.377,0.354,4.794,1.387c2.18,1.586,4.211,3.283,5.826,5.523
		c6.414,8.904,12.938,17.726,19.429,26.574c0.466,0.632,0.979,1.231,1.496,1.88c2.879-0.377,5.442-1.513,8.104-2.288
		c2.681-0.779,5.359-1.569,8.053-2.309c2.692-0.738,5.398-1.435,8.104-2.122c2.691-0.684,5.39-1.33,8.119-2.001
		c0.5-2.414,0.619-4.693,0.819-6.961c0.874-9.836,1.755-19.671,2.577-29.514c0.124-1.472,0.571-2.703,1.615-3.737
		c0.425-0.421,0.797-0.894,1.18-1.353c1.537-1.848,3.424-2.914,5.892-3.114c5.566-0.456,11.118-1.064,16.681-1.593
		c5.559-0.529,11.12-1.039,16.683-1.552c2.979-0.273,5.958-0.574,8.941-0.789c1.789-0.127,3.584-0.167,5.342,0.391
		c1.441,0.459,2.438,1.326,2.898,2.768c0.273,0.856,0.496,1.727,0.737,2.591c3.093,11.042,6.18,22.085,9.278,33.125
		c0.186,0.669,0.443,1.315,0.73,2.152c0.738,0.099,1.498,0.251,2.264,0.291c6.477,0.335,12.961,0.542,19.428,1.003
		c5.27,0.375,10.516,1.056,15.775,1.593c1.469,0.149,2.943,0.267,4.467,0.404c0.381-0.66,0.711-1.149,0.963-1.676
		c4.096-8.542,8.18-17.091,12.273-25.639c0.514-1.078,1.014-2.128,1.107-3.375c0.16-2.147,1.5-3.486,3.482-4.017
		c1.918-0.51,3.898-0.83,5.867-1.085c0.752-0.095,1.588,0.126,2.332,0.364c7.885,2.52,15.756,5.069,23.633,7.612
		c4.176,1.347,8.344,2.727,12.535,4.012c1.027,0.316,2.146,0.355,3.227,0.464c0.592,0.06,1.197-0.039,1.793,0.002
		c1.258,0.086,1.904,0.506,2.117,1.708c0.262,1.46,0.49,2.977,0.391,4.445c-0.564,8.561-1.232,17.115-1.861,25.674
		c-0.188,2.586-0.371,5.175-0.527,7.764c-0.035,0.582,0.047,1.171,0.084,1.896c4.787,2.084,9.555,4.085,14.26,6.23
		c4.715,2.152,9.4,4.379,14.035,6.703c4.627,2.322,9.176,4.806,13.742,7.208c1.107-0.247,1.672-1.121,2.342-1.826
		c6.324-6.651,12.631-13.317,18.941-19.978c2.291-2.416,2.291-2.426,5.643-2.73c3.381-0.308,6.76-0.586,10.139-0.884
		c3.037-0.267,2.385-0.577,5.09,1.646c3.703,3.036,7.371,6.115,11.061,9.167c5.453,4.515,10.924,9.017,16.367,13.545
		c1.148,0.955,2.291,1.935,3.311,3.019c1.166,1.241,1.221,2.339,0.391,3.825c-0.244,0.432-0.523,0.86-0.863,1.219
		c-1.686,1.784-2.59,3.973-3.457,6.22c-3.301,8.561-6.668,17.096-10.006,25.644c-0.326,0.833-0.615,1.681-0.898,2.467
		c0.248,1.275,1.266,1.836,2.055,2.562c6.238,5.75,12.371,11.604,18.117,17.852c3.441,3.743,6.814,7.554,10.221,11.33
		c0.596,0.658,1.211,1.293,1.855,1.983c1.568-0.354,2.857-1.132,4.189-1.757c9.387-4.41,18.758-8.857,28.137-13.284
		c3.355-1.584,6.541-1.378,9.545,0.92c1.992,1.525,3.732,3.206,5.064,5.404c5.178,8.525,10.492,16.966,15.734,25.452
		c1.059,1.707,2.174,3.333,3.822,4.546c0.557,0.408,1.055,0.921,1.502,1.452c1.1,1.295,1.266,2.385,0.293,3.816
		c-1.061,1.559-2.244,3.058-3.535,4.433c-7.443,7.925-14.936,15.805-22.412,23.702c-0.953,1.007-1.895,2.025-2.922,3.125
		c0.385,0.92,0.664,1.758,1.068,2.533c4.818,9.304,9.271,18.775,13.242,28.476c0.299,0.735,0.67,1.443,1.074,2.313
		c0.641,0.053,1.32,0.207,1.982,0.147c7.055-0.644,14.107-1.327,21.158-1.987c4.766-0.448,9.533-0.914,14.307-1.299
		c5.555-0.45,10.635,3.259,12.012,8.731c0.826,3.287,1.584,6.592,2.377,9.89c2.061,8.532,4.119,17.064,6.174,25.599
		c0.188,0.774,0.371,1.554,0.5,2.339c0.496,3.087-0.816,5.254-3.748,6.263c-0.846,0.29-1.717,0.537-2.508,0.939
		c-10.656,5.447-21.305,10.916-31.945,16.388c-0.436,0.225-0.834,0.521-1.387,0.872c0.367,4.165,1.291,8.252,1.736,12.399
		c0.436,4.066,0.939,8.127,1.312,12.199c0.381,4.157,0.639,8.327,0.938,12.276c0.971,0.936,1.973,1.074,2.936,1.323
		c8.492,2.197,16.984,4.402,25.479,6.609c2.217,0.576,4.426,1.199,6.656,1.73c1.047,0.249,1.854,0.632,2.121,1.791
		c0.33,1.425,1.293,2.446,2.348,3.389c0.299,0.265,0.604,0.521,0.914,0.773c2.305,1.869,3.045,4.086,2.443,7.135
		c-2.283,11.541-4.314,23.133-6.504,34.691c-0.285,1.502-0.285,2.955-0.225,4.453c0.055,1.285,0.008,2.594-0.197,3.857
		c-0.193,1.174-1.166,1.553-2.283,1.084c-0.092-0.039-0.195-0.07-0.266-0.135c-1.777-1.592-3.768-1.266-5.896-0.877
		c-9.709,1.781-19.439,3.449-29.16,5.168C687.612,424.787,686.754,425.033,685.819,425.253z M507.717,365.235
		c-0.041-79.889-64.66-144.728-144.652-144.826c-80.513-0.099-145.043,65.125-145.078,144.699
		c-0.036,81.159,66.129,144.958,144.799,145.014C441.036,510.177,507.6,446.845,507.717,365.235z M532.733,589.406
		c0.391-0.201,0.598-0.258,0.734-0.389c3.809-3.66,7.615-7.322,11.402-11.004c0.26-0.252,0.357-0.67,0.592-1.137
		c-0.717-0.768-1.377-1.5-2.061-2.207c-4.633-4.807-9.277-9.607-13.9-14.426c-0.389-0.404-0.656-0.924-1.055-1.5
		c2.805-2.738,5.512-5.377,8.211-8.021c0.625-0.613,1.359-0.795,2.199-0.607c0.389,0.086,0.771,0.195,1.162,0.277
		c8.471,1.805,16.945,3.588,25.408,5.436c1.162,0.256,2.08,0.279,3.002-0.621c4.27-4.186,8.596-8.322,12.873-12.502
		c0.295-0.289,0.369-0.803,0.58-1.285c-1.17-0.293-2.125-0.572-3.098-0.77c-9.363-1.9-18.729-3.779-28.09-5.691
		c-0.525-0.109-1.01-0.447-1.576-0.709c0.277-0.826,0.5-1.482,0.717-2.141c0.217-0.662,0.463-1.316,0.646-1.988
		c1.996-7.322,1.088-14.211-3.145-20.582c-2.404-3.613-5.451-6.611-9.035-9.037c-2.756-1.863-5.812-3.111-9.098-3.617
		c-5.266-0.809-10.312-0.016-15.115,2.35c-3.799,1.869-7.16,4.342-10.197,7.252c-8.342,8.004-16.656,16.043-24.969,24.084
		c-0.553,0.535-0.992,1.186-1.451,1.744c0.229,0.436,0.316,0.748,0.514,0.953c17.957,18.549,35.924,37.092,53.895,55.629
		C532.073,589.099,532.379,589.199,532.733,589.406z M441.639,632.97c1.895-0.088,3.809-0.006,5.672-0.285
		c12.227-1.846,22.494-7.191,30.076-17.168c4.443-5.848,7.125-12.473,7.883-19.756c0.969-9.297-0.904-18.072-5.711-26.129
		c-5.154-8.639-12.479-14.631-22.086-17.775c-6.682-2.186-13.49-2.527-20.369-1.34c-10.783,1.863-19.943,6.705-27.012,15.195
		c-5.25,6.299-8.309,13.52-9.17,21.697c-0.826,7.844,0.549,15.305,3.863,22.393c2.924,6.248,7.193,11.48,12.783,15.545
		C424.729,630.556,432.78,633.06,441.639,632.97z M139.12,520.376c0.721,2.164,2.487,3.281,3.695,4.809
		c1.299,1.639,2.729,3.178,4.143,4.719c1.326,1.445,2.339,3.219,4.251,4.254c2.912-1.008,5.824-2.01,8.736-3.021
		c2.985-1.039,5.93-2.211,8.894-2.99c3.016,2.914,20.371,22.756,21.641,24.752c-0.218,0.551-0.424,1.209-0.725,1.822
		c-2.024,4.109-4.08,8.211-6.1,12.324c-0.472,0.965-1.176,1.865-1.036,3.318c3.695,4.168,7.523,8.488,11.37,12.795
		c0.176,0.193,0.519,0.236,0.903,0.4c0.329-0.516,0.696-0.98,0.945-1.496c5.685-11.865,11.365-23.729,17.029-35.602
		c4.25-8.9,8.47-17.818,12.716-26.723c1.972-4.139,3.903-8.299,5.997-12.375c0.83-1.615,0.566-2.678-0.637-3.955
		c-2.664-2.83-5.214-5.77-7.713-8.746c-1.102-1.312-2.146-1.758-3.862-1.119c-3.451,1.279-6.995,2.312-10.492,3.475
		c-12.574,4.174-25.144,8.359-37.716,12.539c-9.641,3.201-19.286,6.395-28.926,9.607
		C141.212,519.503,140.222,519.945,139.12,520.376z M219.925,237.178c0.634-0.263,1.113-0.385,1.515-0.638
		c4.918-3.111,11.808-8.151,13.363-9.79c-0.113-0.765-0.195-1.654-0.383-2.52c-0.611-2.825-1.274-5.639-1.894-8.462
		c-0.532-2.418-1.03-4.842-1.543-7.259c0.578-0.497,0.996-0.922,1.479-1.258c8.017-5.588,16.041-11.169,24.071-16.736
		c0.476-0.328,1.037-0.53,1.618-0.819c2.662,1.719,5.226,3.44,7.857,5.05c2.699,1.652,5.175,3.686,8.243,5.047
		c4.778-3.333,9.515-6.631,14.24-9.95c0.214-0.15,0.317-0.462,0.534-0.792c-0.854-1.208-2.184-1.737-3.329-2.461
		c-10.628-6.701-21.279-13.368-31.92-20.051c-12.074-7.583-24.144-15.179-36.226-22.755c-0.652-0.41-1.384-0.695-2.144-1.071
		c-4.437,3.075-8.765,6.077-13.176,9.137c0.083,0.874,0.09,1.664,0.244,2.424c0.736,3.614,1.523,7.216,2.276,10.825
		c2.846,13.668,5.691,27.337,8.527,41.006c1.965,9.468,3.906,18.938,5.876,28.403C219.333,235.358,219.635,236.185,219.925,237.178z
		 M519.391,243.12c0.256-0.546,0.49-0.886,0.586-1.261c6.973-27.31,13.936-54.623,20.889-81.938c0.068-0.275,0.01-0.583,0.01-0.808
		c-2.471-2.443-10.971-8.854-13.303-10.001c-24.734,14.093-49.574,28.243-74.408,42.407c-0.23,0.132-0.369,0.425-0.648,0.758
		c0.344,0.388,0.605,0.806,0.979,1.085c4.379,3.274,8.633,6.721,13.209,9.995c5.494-3.202,10.893-6.351,16.426-9.579
		c3.131,2.1,5.955,4.451,8.893,6.646c2.873,2.148,5.717,4.338,8.545,6.545c2.887,2.25,5.936,4.309,8.713,6.812
		c-1.406,6.205-3.365,12.158-4.742,18.274c0.533,0.507,0.928,0.954,1.391,1.308c4.121,3.14,8.252,6.265,12.393,9.381
		C518.538,242.909,518.862,242.94,519.391,243.12z M309.466,161.6c0.766-0.306,1.283-0.597,1.84-0.723
		c1.942-0.443,3.909-0.782,5.848-1.249c3.869-0.934,7.816-1.549,11.542-3.065c3.812-1.554,7.405-3.432,10.55-6.123
		c4.723-4.042,7.864-9.056,8.764-15.216c1.12-7.668-0.372-14.883-4.629-21.438c-3.472-5.341-8.377-8.659-14.494-10.342
		c-5.317-1.462-10.66-1.424-15.986-0.326c-10.138,2.094-20.246,4.325-30.367,6.504c-0.86,0.185-1.788,0.238-2.526,1.2
		c0.146,0.838,0.279,1.819,0.49,2.784c2.393,11.004,4.82,22.002,7.199,33.01c2.755,12.756,5.458,25.523,8.229,38.276
		c0.224,1.03,0.192,2.198,1.058,3.083c0.497,0,1,0.085,1.464-0.014c4.77-1.028,9.537-2.07,14.291-3.158
		c0.53-0.123,0.988-0.554,1.537-0.874C312.676,176.51,311.108,169.219,309.466,161.6z M314.65,570.988
		c-0.085-0.41-0.118-0.908-0.288-1.354c-1.908-4.98-4.509-9.539-8.196-13.443c-4.384-4.637-9.662-8.002-15.402-10.648
		c-7.13-3.289-14.688-4.496-22.457-3.682c-6.86,0.719-13.266,3.158-18.697,7.391c-13.958,10.875-19.707,25.215-16.709,42.713
		c1.479,8.617,5.856,15.852,12.438,21.629c6.194,5.439,13.412,8.881,21.477,10.609c7.757,1.664,15.255,0.693,22.599-2.037
		c0.532-0.199,1-0.57,1.44-0.828c-0.342-2.707-3.8-12.771-5.211-15.15c-1.864,0.393-3.804,0.758-5.724,1.211
		c-6.332,1.488-12.312,0.424-17.901-2.703c-6.74-3.773-10.464-9.617-11.198-17.326c-0.602-6.32,1.117-12.066,4.548-17.303
		c3.032-4.629,7.133-8.104,12.402-9.891c8.174-2.773,15.511-0.916,22.026,4.547c3.429,2.873,5.836,6.51,7.681,10.553
		c0.401,0.881,0.535,1.949,1.499,2.479C301.517,577.146,312.479,572.433,314.65,570.988z M158.166,206.486
		c-0.706,0-1.015-0.062-1.29,0.011c-6.581,1.72-12.522,4.726-17.374,9.502c-6.422,6.329-11.094,13.77-13.433,22.596
		c-1.431,5.397-1.712,10.866-0.867,16.307c1.85,11.87,8,21.137,17.975,27.758c7.392,4.904,15.485,7.479,24.513,7.264
		c8.054-0.19,15.276-2.536,21.844-7.023c5.62-3.841,9.822-8.97,13.147-14.882c5.606-9.979,6.715-20.493,3.961-31.51
		c-0.194-0.775-0.333-1.574-1.248-1.941c-0.158,0-0.365-0.038-0.554,0.007c-4.355,1.038-8.713,2.07-13.056,3.155
		c-0.53,0.132-0.986,0.57-1.466,0.859c0.064,0.839,0.034,1.547,0.184,2.219c0.549,2.456,0.562,4.941,0.553,7.438
		c-0.021,6.514-2.419,12.113-6.887,16.71c-5.035,5.186-11.332,7.249-18.512,6.341c-8.377-1.062-15.068-5.058-19.702-12.122
		c-3.937-5.999-4.908-12.521-2.492-19.417c1.817-5.187,5.144-9.18,9.669-12.187c2.495-1.659,5.198-2.938,8.052-3.89
		c0.716-0.236,1.375-0.639,2.171-1.019C161.787,217.125,159.942,211.889,158.166,206.486z M158.049,445.712
		c2.319-1.377,4.795-2.117,7.194-3.035c2.479-0.945,4.868-2.162,7.599-2.729c0.319,0.654,0.612,1.162,0.823,1.703
		c2.485,6.412,4.96,12.828,7.435,19.244c2.117,5.488,4.22,10.98,6.354,16.459c0.275,0.707,0.718,1.348,1.03,1.924
		c0.422,0,0.64,0.057,0.81-0.008c4.28-1.641,8.559-3.283,12.824-4.959c0.517-0.203,0.954-0.607,1.302-0.84
		c0-0.428,0.059-0.646-0.007-0.816c-7.064-18.32-14.138-36.633-21.215-54.945c-0.034-0.09-0.114-0.166-0.188-0.23
		c-0.072-0.064-0.163-0.105-0.326-0.207c-0.209-0.014-0.54-0.141-0.785-0.045c-23.996,9.217-47.986,18.447-71.972,27.693
		c-0.442,0.17-0.834,0.475-1.346,0.771c0.68,2.926,1.931,5.535,2.981,8.199c1.085,2.748,1.815,5.662,3.398,8.143
		c1.419,0.117,2.456-0.564,3.553-0.984c7.628-2.936,15.243-5.896,22.869-8.826c0.619-0.236,1.238-0.691,2.111-0.273
		c0.201,0.43,0.479,0.949,0.69,1.496c1.37,3.529,2.723,7.066,4.086,10.598c2.657,6.881,5.311,13.766,7.993,20.637
		c0.235,0.602,0.687,1.119,1.003,1.625c4.631-1.297,13.001-4.633,15.042-6.041C167.014,468.792,162.358,457.378,158.049,445.712z
		 M525.868,486.908c0.393,0.096,0.76,0.293,1.102,0.252c1.582-0.176,3.162-0.404,4.736-0.643c5.902-0.904,11.805-1.834,17.711-2.723
		c5.314-0.799,10.635-1.557,15.951-2.336c4.434-0.648,8.867-1.287,13.297-1.963c2.221-0.338,4.318-0.236,6.342,0.938
		c1.281,0.748,2.727,1.217,4.09,1.822c6.1,2.719,12.189,5.455,18.295,8.152c0.979,0.432,1.924,1.043,3.18,1.029
		c1.703-2.383,2.535-5.17,3.719-7.771c1.225-2.686,2.658-5.301,3.469-8.068c-0.848-1.074-1.941-1.348-2.932-1.787
		c-7.926-3.514-15.848-7.033-23.785-10.514c-1.316-0.576-2.387-1.295-3.143-2.584c-1.057-1.803-2.301-3.494-3.457-5.24
		c-8.299-12.557-16.596-25.117-24.904-37.668c-0.537-0.812-1.16-1.568-1.775-2.395c-0.381,0.295-0.707,0.424-0.814,0.656
		c-2.674,5.785-5.285,11.594-7.764,17.537c1.531,2.658,3.381,5.01,5.057,7.471c1.686,2.471,3.434,4.896,5.145,7.348
		c1.764,2.537,3.553,5.057,5.275,7.623c1.646,2.455,3.557,4.744,4.979,7.471c-0.43,0.182-0.67,0.354-0.932,0.387
		c-1.977,0.258-3.955,0.486-5.93,0.732c-4.348,0.547-8.689,1.117-13.043,1.635c-4.352,0.516-8.709,0.961-13.061,1.475
		c-0.973,0.115-1.928,0.389-2.986,0.604c-2.607,5.904-5.188,11.729-7.748,17.562C525.831,486.156,525.895,486.478,525.868,486.908z
		 M481.28,120.633c-1.17-0.401-2.189-0.775-3.225-1.1c-5.225-1.64-10.457-3.259-15.68-4.901
		c-14.154-4.447-28.307-8.904-42.461-13.345c-0.445-0.139-0.936-0.124-1.377-0.177c-0.238,0.376-0.455,0.602-0.543,0.871
		c-1.418,4.464-2.83,8.928-4.211,13.402c-0.131,0.43-0.016,0.935-0.016,1.516c3.832,1.204,7.541,2.317,11.215,3.541
		c3.652,1.216,7.443,2.033,11.051,3.698c-0.572,2.716-1.428,5.149-2.193,7.605c-0.768,2.473-1.553,4.943-2.326,7.415
		s-1.539,4.943-2.311,7.415s-1.541,4.945-2.318,7.415c-0.811,2.567-1.627,5.13-2.436,7.694c-0.781,2.47-1.57,4.938-2.35,7.408
		c-0.777,2.472-1.617,4.928-2.305,7.425c-0.684,2.468-1.84,4.817-2.084,7.371c2.666,1.417,14.252,5.086,16.887,5.338
		c0.248-0.592,0.562-1.204,0.77-1.85c3.572-11.305,7.129-22.613,10.703-33.917c2.338-7.41,4.688-14.816,7.057-22.218
		c0.17-0.53,0.537-0.996,0.885-1.622c3.832,1.19,7.518,2.376,11.227,3.48c3.689,1.096,7.293,2.519,11.02,3.272
		C477.438,134.333,480.918,123.453,481.28,120.633z M341.425,641.951c4.746,1.182,9.476,0.639,14.082,1.314
		c1.165,0.172,2.367,0.383,3.747-0.129c0.112-0.799,0.282-1.664,0.347-2.535c0.388-5.27,0.771-10.537,1.115-15.809
		c0.897-13.723,1.765-27.451,2.674-41.178c0.063-0.957-0.08-2.006,0.753-2.984c7.639,0.162,15.336,1.311,23.129,1.262
		c0.193-0.748,0.439-1.309,0.48-1.885c0.312-4.373,0.592-8.748,0.854-13.123c0.02-0.373-0.16-0.76-0.289-1.309
		c-1.285-0.164-2.557-0.389-3.84-0.473c-1.988-0.137-3.984-0.133-5.973-0.266c-6.068-0.4-12.131-0.85-18.197-1.264
		c-3.481-0.242-6.965-0.432-10.444-0.682c-4.973-0.355-9.941-0.758-14.912-1.111c-3.182-0.227-6.367-0.42-9.554-0.594
		c-0.87-0.049-1.795-0.309-2.725,0.473c-0.158,1.648-0.365,3.422-0.491,5.207c-0.129,1.789-0.245,3.582-0.245,5.375
		c0.002,1.752-0.755,3.52,0.041,5.479c7.69,0.756,15.445,0.871,23.47,1.707C344.192,600.363,342.703,621.085,341.425,641.951z
		 M546.907,260.171c3.24-2.033,6.27-3.736,9.275-5.48c3.016-1.753,6.031-3.508,9.041-5.271c3.008-1.767,6.004-3.548,9.012-5.317
		c3.006-1.769,6.018-3.527,9.027-5.292s6.041-3.488,9.016-5.311c2.945-1.806,6.1-3.288,8.99-5.532
		c-2.512-4.68-5.27-9.045-7.82-13.531c-0.33-0.585-0.805-1.092-1.305-1.749c-0.701,0.345-1.33,0.61-1.914,0.952
		c-4.645,2.721-9.271,5.467-13.916,8.188c-17.027,9.975-34.057,19.945-51.076,29.931c-0.574,0.335-1.068,0.808-1.734,1.324
		c0.689,1.234,1.299,2.366,1.945,3.475c0.955,1.636,1.943,3.249,2.902,4.882c7.656,13.073,15.307,26.148,22.973,39.217
		c0.338,0.574,0.82,1.062,1.225,1.582c0.439-0.152,0.734-0.207,0.982-0.35c4.057-2.343,8.109-4.688,12.148-7.062
		c0.307-0.181,0.486-0.575,0.822-0.993C560.194,282.59,553.424,271.683,546.907,260.171z M598.147,328.782
		c-1.014,0.729-1.303,1.715-1.74,2.559c-2.111,4.066-4.148,8.17-6.246,12.242c-1.574,3.059-0.918,3.017-5.164,3.565
		c-5.035,0.651-10.078,1.276-15.113,1.938c-0.445,0.06-0.867,0.305-1.299,0.461c0.316,1.224,1.176,1.795,1.867,2.492
		c3.572,3.61,7.164,7.206,10.732,10.821c0.48,0.485,0.871,1.053,1.279,1.555c-1.16,6.479-2.299,12.844-3.434,19.211
		c-0.014,0.082,0.051,0.188,0.098,0.275c0.045,0.076,0.115,0.137,0.232,0.275c1.098-0.037,2.012-0.697,2.967-1.18
		c4.186-2.098,8.34-4.252,12.516-6.367c0.873-0.441,1.791-0.799,2.676-1.188c2.061,1.102,3.994,2.125,5.92,3.168
		c2.016,1.09,4.008,2.225,6.037,3.285c1.896,0.988,3.621,2.361,5.943,2.867c0-0.758,0.074-1.346-0.014-1.908
		c-0.689-4.43-1.418-8.853-2.125-13.28c-0.203-1.278-0.453-2.557-0.537-3.843c-0.033-0.536,0.188-1.182,0.506-1.62
		c0.463-0.636,1.115-1.134,1.693-1.682c3.543-3.36,7.092-6.71,10.621-10.082c0.549-0.523,1-1.145,1.748-2.013
		c-3.516-0.932-6.783-1.17-9.973-1.782c-3.318-0.636-6.676-1.059-10.154-1.596c-1.006-2.093-2.002-4.148-2.988-6.207
		c-0.945-1.975-1.834-3.982-2.84-5.926C600.327,332.84,599.676,330.634,598.147,328.782z M169.663,342.467
		c-1.602-0.318-2.656-0.556-3.72-0.731c-4.522-0.737-9.057-1.385-13.564-2.208c-3.521-0.645-2.905-0.036-4.561-3.475
		c-2.162-4.486-4.253-9.006-6.4-13.499c-0.274-0.576-0.692-1.085-1.117-1.742c-1.105,0.969-1.506,2.112-2.043,3.151
		c-2.246,4.333-4.49,8.668-6.669,13.035c-0.592,1.187-1.365,1.832-2.715,1.97c-2.376,0.243-4.74,0.631-7.109,0.94
		c-3.162,0.413-6.327,0.789-9.485,1.23c-0.524,0.073-1.01,0.401-1.754,0.711c0.843,0.928,1.476,1.676,2.164,2.373
		c3.364,3.396,6.659,6.868,10.153,10.125c1.541,1.438,1.897,2.905,1.377,4.782c-0.082,0.287-0.163,0.576-0.217,0.868
		c-0.874,4.601-1.751,9.2-2.599,13.804c-0.14,0.751-0.14,1.53-0.229,2.59c0.901-0.318,1.554-0.48,2.142-0.773
		c3.033-1.504,6.03-3.082,9.078-4.557c2.407-1.166,4.669-2.652,7.35-3.461c1.924,1.028,3.859,2.05,5.783,3.092
		c2.016,1.09,3.999,2.242,6.035,3.286c1.917,0.98,3.694,2.279,5.97,2.921c0.193-1.602-0.15-2.958-0.354-4.312
		c-0.686-4.528-1.374-9.059-2.139-13.576c-0.277-1.632,0.136-2.798,1.397-3.94c3.617-3.273,7.116-6.681,10.651-10.045
		C167.803,344.352,168.483,343.643,169.663,342.467z M387.098,178.859c0.174-0.973,0.33-1.541,0.367-2.115
		c0.393-6.06,0.787-12.12,1.143-18.184c0.734-12.425,1.455-24.852,2.176-37.276c0.357-6.164,0.721-12.326,1.027-18.494
		c0.059-1.147,0.408-2.358-0.258-3.568c-5.355-0.722-10.734-0.671-16.082-1.065c-0.371-0.027-0.758,0.149-1.254,0.255
		c-0.141,0.697-0.344,1.36-0.391,2.031c-0.252,3.575-0.486,7.153-0.688,10.732c-0.707,12.525-1.391,25.054-2.098,37.581
		c-0.266,4.673-0.574,9.341-0.867,14.013c-0.242,3.874-0.527,7.748-0.715,11.624c-0.051,1.044-0.406,2.185,0.439,3.238
		C375.479,178.439,381.163,178.263,387.098,178.859z"/>
	<path fill-rule="evenodd" clip-rule="evenodd" d="M363.663,299.185c1.264,2.635,2.258,4.688,3.238,6.75
		c5.008,10.535,10.035,21.061,14.979,31.624c0.693,1.476,1.721,2.032,3.203,2.258c6.604,1.013,13.199,2.069,19.797,3.114
		c6.695,1.061,13.391,2.125,20.08,3.206c0.371,0.06,0.719,0.273,1.033,0.401c0.109,1.095-0.707,1.48-1.246,1.994
		c-5.777,5.504-11.578,10.984-17.367,16.473c-3.768,3.564-7.49,7.177-11.312,10.678c-1.162,1.062-1.535,2.09-1.277,3.664
		c1.268,7.672,2.414,15.361,3.604,23.045c0.867,5.615,1.744,11.229,2.602,16.848c0.07,0.475,0.01,0.969,0.01,1.434
		c-0.992,0.367-1.605-0.27-2.264-0.627c-7.008-3.807-13.998-7.646-21.002-11.465c-4.637-2.529-9.312-4.998-13.916-7.59
		c-1.292-0.725-2.353-0.682-3.628-0.029c-11.277,5.758-22.569,11.482-33.874,17.186c-1.197,0.604-2.32,1.488-3.922,1.531
		c0.034-2.447,0.7-4.645,1.106-6.867c2.038-11.18,4.151-22.344,6.237-33.516c0.019-0.098,0.032-0.197,0.061-0.293
		c0.589-1.918,0-3.324-1.455-4.766c-8.928-8.84-17.768-17.771-26.604-26.707c-0.799-0.806-1.906-1.43-2.251-2.883
		c0.544-0.152,0.989-0.338,1.448-0.397c11.571-1.487,23.144-2.958,34.717-4.44c1.777-0.228,3.546-0.605,5.33-0.737
		c1.592-0.119,2.492-0.871,3.187-2.267c2.49-4.996,5.079-9.942,7.624-14.913c3.36-6.569,6.71-13.143,10.08-19.706
		C362.324,301.323,362.871,300.512,363.663,299.185z"/>
	<path fill-rule="evenodd" clip-rule="evenodd" d="M516.977,547.058c-2.426-2.031-13.559-13.605-14.965-15.557
		c0.309-0.404,0.602-0.908,1.006-1.299c3.648-3.531,7.312-7.045,10.979-10.561c1.445-1.383,3.025-2.57,4.816-3.49
		c3.734-1.918,7.27-1.715,10.615,0.881c5.443,4.223,6,9.9,2.771,14.729c-0.826,1.232-1.73,2.451-2.781,3.49
		c-3.75,3.711-7.578,7.344-11.383,11C517.752,546.521,517.411,546.73,516.977,547.058z"/>
	<path fill-rule="evenodd" clip-rule="evenodd" d="M466.823,590.644c0.123,11.232-5.484,20.258-15.234,23.773
		c-8.582,3.094-16.494,1.701-23.174-4.236c-7.83-6.959-10.934-15.965-8.207-26.232c2.447-9.215,8.941-14.521,18.223-16.559
		c9.945-2.188,20.75,3.543,25.303,12.852C465.592,584.048,466.854,588.007,466.823,590.644z"/>
	<path fill-rule="evenodd" clip-rule="evenodd" d="M209.523,514.128c-0.786,2.523-9.5,20.301-10.923,22.385
		c-0.09,0.014-0.182,0.045-0.269,0.031c-0.095-0.016-0.212-0.045-0.271-0.109c-3.646-4.064-7.295-8.129-10.926-12.205
		c-0.455-0.512-0.829-1.096-1.17-1.553c0-0.25-0.03-0.361,0.007-0.438c0.043-0.078,0.144-0.145,0.231-0.18
		c0.643-0.266,1.275-0.555,1.932-0.783c6.748-2.344,13.502-4.68,20.258-7.01C208.656,514.175,208.955,514.195,209.523,514.128z"/>
	<path fill-rule="evenodd" clip-rule="evenodd" d="M221.912,166.412c0.347,0.134,0.731,0.214,1.042,0.412
		c6.703,4.239,13.324,8.602,20.03,12.977c-0.306,0.408-0.432,0.701-0.652,0.854c-4.814,3.351-9.639,6.688-14.469,10.013
		c-0.138,0.095-0.379,0.037-0.639,0.054c-0.142-0.204-0.395-0.415-0.452-0.669c-1.722-7.658-3.429-15.32-5.118-22.983
		C221.62,166.916,221.786,166.718,221.912,166.412z"/>
	<path fill-rule="evenodd" clip-rule="evenodd" d="M514.067,196.484c-1.75-0.641-2.75-1.641-3.828-2.472
		c-3.844-2.966-7.816-5.776-11.674-9.101c1.682-1.608,3.65-2.353,5.371-3.448c1.764-1.122,3.613-2.108,5.422-3.159
		c1.811-1.054,3.605-2.131,5.428-3.163c1.785-1.012,3.451-2.261,5.707-3.13c-0.102,0.779-0.107,1.26-0.23,1.707
		C518.202,181.195,516.346,188.728,514.067,196.484z"/>
	<path fill-rule="evenodd" clip-rule="evenodd" d="M306.025,145.171c-1.7-6.746-2.948-13.479-4.491-20.145
		c-0.175-0.753-0.181-1.547-0.272-2.402c1.602-0.622,3.146-0.911,4.688-1.221c3.41-0.68,6.807-1.435,10.217-2.108
		c2.733-0.542,5.328-0.068,7.828,1.146c1.758,0.855,3.157,2.063,4.126,3.758c1.643,2.87,2.309,5.938,1.581,9.188
		c-0.874,3.913-3.492,6.383-7.021,7.979c-1.085,0.49-2.221,0.918-3.376,1.187c-3.972,0.918-7.963,1.758-11.951,2.606
		C306.991,145.238,306.595,145.171,306.025,145.171z"/>
</g>
</svg>
