<?xml version="1.0" encoding="utf-8"?>
<!-- Generator: Adobe Illustrator 16.0.4, SVG Export Plug-In . SVG Version: 6.00 Build 0)  -->
<!DOCTYPE svg PUBLIC "-//W3C//DTD SVG 1.1//EN" "http://www.w3.org/Graphics/SVG/1.1/DTD/svg11.dtd">
<svg version="1.1" id="Layer_1" xmlns="http://www.w3.org/2000/svg" xmlns:xlink="http://www.w3.org/1999/xlink" x="0px" y="0px"
	 width="187.088px" height="38.861px" viewBox="0 0 187.088 38.861" enable-background="new 0 0 187.088 38.861"
	 xml:space="preserve">
<g>
	<path fill="#255398" d="M35.197,25.76c-0.111-0.442-0.333-1-0.444-1.557h36.863l-4.108,4.33H2.443c0,0-0.333-0.555-0.444-0.775
		c-0.111-0.334-0.333-0.891-0.333-0.891h16.988c0,0-0.111-0.334-0.222-0.555c0-0.224-0.223-0.556-0.223-0.556h16.988V25.76z"/>
	<path fill="#255398" d="M37.751,30.532c-0.222-0.441-0.555-1-0.888-1.221H66.73l-4.108,3.996H6.33c0,0-0.667-0.443-0.777-0.666
		c-0.222-0.224-0.666-0.777-0.666-0.777h17.099c0,0-0.444-0.332-0.666-0.666c-0.223-0.332-0.444-0.666-0.444-0.666H37.751
		L37.751,30.532z"/>
	<path fill="#255398" d="M43.303,35.53c-0.667-0.443-1.221-0.889-1.776-1.443h20.208l-3.997,4.22H16.877c0,0-1.11-0.222-2.109-0.556
		c-1-0.332-2.665-0.889-2.665-0.889h16.988c0,0-0.888-0.332-1.443-0.666c-0.444-0.221-1.333-0.666-1.333-0.666H43.303L43.303,35.53z
		"/>
	<path fill="#255398" d="M34.087,19.431h38.306c-0.111,1.331-0.223,2.773-0.556,3.996H0.445c0,0,0-0.334-0.111-0.665
		c-0.111-0.335-0.111-0.775-0.111-0.775h16.988c0,0,0-0.225,0-0.445c-0.111-0.223,0-0.555,0-0.555h16.876c0,0,0-0.56,0-0.777
		C33.976,19.876,34.087,19.431,34.087,19.431L34.087,19.431z"/>
	<path fill="#255398" d="M34.309,15.99c0-0.443,0.111-1,0.333-1.555h37.195c0.333,1.331,0.444,2.773,0.556,4.22H0
		c0,0,0-0.444,0-0.666c0-0.333,0-0.666,0-0.666h17.099c0,0,0.111-0.333,0.111-0.666s0.111-0.667,0.111-0.667H34.309L34.309,15.99z"
		/>
	<path fill="#255398" d="M18.765,11.215c0,0-0.111,0.225-0.333,0.557c-0.111,0.334-0.223,0.666-0.223,0.666H1.222
		c0,0-0.111,0.334-0.333,0.557c-0.111,0.333-0.111,0.666-0.111,0.666h70.838c-0.444-1.333-1.11-2.775-1.777-3.997H36.53
		c-0.333,0.556-0.555,0.888-0.777,1.554L18.765,11.215L18.765,11.215z"/>
	<path fill="#255398" d="M38.861,6.219c0.555-0.555,1-1,1.555-1.441h25.537c1.332,1.107,2.554,2.554,3.442,4.105H2.888
		c0,0,0.222-0.441,0.444-0.666c0.222-0.332,0.333-0.441,0.333-0.441h17.099c0,0,0.223-0.444,0.556-0.777s0.666-0.776,0.666-0.776
		L38.861,6.219L38.861,6.219z"/>
	<path fill="#255398" d="M45.413,1.554C48.3,0.334,49.965,0,53.296,0c4.441,0,8.327,1.444,11.77,3.998H7.329
		c0,0,0.555-0.442,0.888-0.667C8.55,2.999,8.994,2.888,8.994,2.888h16.988c0,0,0.888-0.443,1.221-0.776
		c0.444-0.224,1.221-0.556,1.221-0.556h16.989V1.554z"/>
	<path fill="#93867D" d="M77.389,25.317c1.776,0,3.331,0.334,3.331,0.334l-0.333,1.998c0,0-1.11-1.111-3.331-1.111
		c-3.886,0-5.663,3.109-5.663,5.775c0,2.328,1.554,4.771,4.774,4.771c1.888,0,4.22-1.223,4.22-1.223l-1.333,2.44
		c0,0-1.554,0.224-2.775,0.224c-5.885,0-7.217-3.553-7.217-5.996C69.062,31.647,69.728,25.317,77.389,25.317L77.389,25.317z"/>
	<path fill="#93867D" d="M82.83,25.536h2.998c0,0-0.666,0.443-0.777,0.998c-0.111,0.668-1.333,10.105-1.443,10.326
		c0,0.445,0.333,1.334,0.444,1.442h-3.553c0,0,0.777-0.997,0.889-1.553c0.222-0.557,1.554-10.104,1.554-10.326
		C83.052,26.093,82.94,25.651,82.83,25.536L82.83,25.536z"/>
	<path fill="#93867D" d="M93.709,38.305c0,0-1.666-1.773-2.441-2.994c-0.888-1.226-2.221-3.332-2.221-3.664
		c0-0.334,0.444-0.226,0.666-0.226c0.222,0,3.109-0.666,3.109-2.889c0-1.332-1.11-2-2.442-2c-0.667,0-0.889,0-0.889,0
		s-1.443,10.219-1.554,10.439c0,0.444,0.444,1.223,0.555,1.332h-3.553c0,0,0.777-0.888,0.888-1.332
		c0.111-0.443,1.666-10.326,1.666-10.548c0.111-0.225-0.333-0.776-0.555-0.891c0,0,4.108,0,4.997,0s3.332,0.332,3.332,2.775
		c0,2.44-3.775,3.332-3.775,3.662c0.111,0.225,0.89,1.557,1.554,2.557c0.777,0.889,3.111,3.438,3.44,3.771h-2.776V38.305z"/>
	<path fill="#93867D" d="M103.037,38.305c0,0-1.774-1.773-2.556-2.994c-0.774-1.226-2.106-3.332-2.106-3.664
		c0-0.334,0.44-0.226,0.666-0.226c0.222,0,2.996-0.666,2.996-2.889c0-1.332-0.998-2-2.44-2c-0.666,0-0.89,0-0.89,0
		s-1.442,10.219-1.442,10.439c-0.111,0.444,0.334,1.223,0.442,1.332h-3.554c0,0,0.777-0.888,0.89-1.332
		c0.108-0.443,1.774-10.326,1.774-10.548c0-0.225-0.334-0.776-0.557-0.891c0,0,4.107,0,4.998,0c0.887,0,3.219,0.332,3.219,2.775
		c0,2.44-3.664,3.332-3.664,3.662c0,0.225,0.777,1.557,1.558,2.557c0.666,0.889,2.998,3.438,3.33,3.771h-2.664V38.305z"/>
	<path fill="#93867D" d="M105.592,25.536h3.441c0,0-0.558,0.666-0.666,1.109c-0.111,0.557-1,7.328-1.111,7.662
		c-0.11,1.555,1.224,2.774,3.222,2.774c2.44,0,2.887-1.108,3.108-2.887c0.106-0.334,1.106-7.328,1.106-7.551
		c0-0.224-0.334-0.998-0.44-1.109h3.33c0,0-0.666,0.666-0.776,1.221c0,0.556-1.109,7.662-1.109,7.994
		c-0.223,1.89-2.221,3.775-5.553,3.775c-3.775,0-5.328-2.109-5.22-3.441c0.111-0.666,1.111-8.217,1.111-8.438
		C106.035,26.427,105.924,25.76,105.592,25.536L105.592,25.536z"/>
	<path fill="#93867D" d="M123.244,25.317c1.108,0,2.555,0.334,2.555,0.334l-0.334,1.887c0,0-0.998-1-2.664-1
		s-2.887,1.223-2.887,2.111c0,1.332,1.555,1.772,2.998,2.438c1.332,0.56,2.887,1.109,2.887,2.89c0,1.889-2.108,4.662-5.885,4.662
		c-2.664,0-2.89-0.666-2.89-0.666l-0.442-2.107c0,0,2.108,1.221,3.772,1.221c1.558,0,3.109-1.108,3.109-2.108
		c0-1.222-1.889-2.222-2.889-2.664c-1.107-0.445-3.107-1.443-3.107-2.998C117.468,27.76,118.69,25.317,123.244,25.317
		L123.244,25.317z"/>
	<path fill="#93867D" d="M132.017,25.536h3.108c0,0-0.666,0.666-0.776,1.443c-0.111,0.666-1.222,9.881-1.222,9.881
		s1.222,0.225,2.106,0.225c1.666,0,2.998-0.666,3.441-0.891c0,0,0.109,0,0.109,0.111c0,0.11-0.889,1.997-0.889,1.997h-7.883
		c0,0,0.889-0.997,1-1.553c0.11-0.557,0.997-5.664,1.331-10.217C132.351,26.317,132.237,25.76,132.017,25.536L132.017,25.536z"/>
	<path fill="#93867D" d="M146.783,25.317c1.557,0,5.885,0.666,5.885,6.104c0,3.773-3.553,7.439-7.771,7.439
		c-4.108,0-6.219-2.775-6.219-5.885C138.678,30.757,140.229,25.317,146.783,25.317L146.783,25.317z M140.896,32.313
		c0,2.664,1.443,5.104,4.33,5.104c1.666,0,5.33-1.891,5.33-5.887c0-2.887-1.998-4.998-4.33-4.998
		C143.453,26.534,140.896,29.315,140.896,32.313L140.896,32.313z"/>
	<path fill="#93867D" d="M161.883,25.427c1.666,0,2.998,0.441,2.998,0.441l-0.223,1.891c0,0-1.443-1-3.33-1
		c-3.44,0-6.22,3.224-6.22,5.888c0,2.666,1.998,4.553,5.554,4.553c1.887,0,2.106-0.225,2.106-0.225s0.558-4.22,0.558-4.328
		c0-0.226-0.224-0.558-0.332-0.666h2.332c0,0-0.226,0.334-0.226,0.666c0,0.334-0.666,5.438-0.666,5.438s-2.106,0.775-3.998,0.775
		c-1.998,0-7.217-0.775-7.217-5.771C153.224,28.2,157.553,25.427,161.883,25.427L161.883,25.427z"/>
	<path fill="#93867D" d="M167.437,25.536h2.998c0,0-0.668,0.443-0.777,0.998c-0.109,0.668-1.223,10.105-1.223,10.326
		c-0.111,0.445,0.334,1.334,0.444,1.442h-3.664c0,0,0.89-0.997,0.998-1.553c0.111-0.557,1.334-10.104,1.334-10.326
		C167.656,26.093,167.547,25.651,167.437,25.536L167.437,25.536z"/>
	<path fill="#93867D" d="M179.871,38.415c-0.666,0.226-1.666,0.445-2.666,0.445c-1.89,0-7.218-0.775-7.218-5.771
		c0-4.889,4.328-7.662,8.658-7.662c1.777,0,2.998,0.441,2.998,0.441l-0.221,1.891c0,0-1.334-1-3.332-1
		c-3.441,0-6.219,3.224-6.219,5.888c0,2.666,1.998,4.553,5.662,4.553c1.332,0,3.664-1,3.664-1h0.111
		C181.426,36.307,179.871,38.415,179.871,38.415L179.871,38.415z"/>
	<path fill="#93867D" d="M187.088,27.202c0,1.223-0.889,2.109-2.108,2.109c-1.224,0-2.222-0.89-2.222-2.109
		c0-1.223,0.998-2.221,2.222-2.221C186.199,24.985,187.088,25.983,187.088,27.202L187.088,27.202z M183.09,27.202
		c0,0.998,0.89,1.889,1.89,1.889c0.998,0,1.887-0.891,1.887-1.889c0-1.109-0.889-2-1.887-2
		C183.978,25.202,183.09,26.093,183.09,27.202L183.09,27.202z M183.867,25.983h1.108c0.443,0,0.777,0.108,0.777,0.555
		c0,0.334-0.223,0.557-0.557,0.668l0.445,0.555c0.108,0.224,0.332,0.443,0.44,0.556l0,0h-0.332c-0.224,0-0.334-0.332-0.774-1h-0.334
		v0.557c0,0.332,0,0.332,0.334,0.332v0.111h-1.111v-0.111c0.334,0,0.334,0,0.334-0.332V26.43c0-0.334,0-0.334-0.334-0.334v-0.111
		h0.002L183.867,25.983L183.867,25.983z M184.646,27.202h0.223c0.332,0,0.557-0.223,0.557-0.668c0-0.332-0.225-0.441-0.557-0.441
		h-0.223V27.202L184.646,27.202z"/>
</g>
</svg>
