<?xml version="1.0" encoding="utf-8"?>
<!-- Generator: Adobe Illustrator 16.0.4, SVG Export Plug-In . SVG Version: 6.00 Build 0)  -->
<!DOCTYPE svg PUBLIC "-//W3C//DTD SVG 1.1//EN" "http://www.w3.org/Graphics/SVG/1.1/DTD/svg11.dtd">
<svg version="1.1" id="Layer_1" xmlns="http://www.w3.org/2000/svg" xmlns:xlink="http://www.w3.org/1999/xlink" x="0px" y="0px"
	 width="715.596px" height="177.575px" viewBox="0 0 715.596 177.575" enable-background="new 0 0 715.596 177.575"
	 xml:space="preserve">
<g>
	<path fill="#A52038" d="M146.269,63.829c-0.396,0.117-0.787,0.307-1.189,0.337c-1.732,0.131-3.468,0.303-5.203,0.304
		c-42.21,0.016-84.42,0.013-126.631,0.012c-0.644,0-1.289-0.012-1.934-0.008c-2.602,0.015-4.447-1.442-6.541-2.801
		c-2.222-1.442-2.768-3.829-4.383-5.529c-0.246-0.259-0.158-0.865-0.165-1.312c-0.022-1.482,0.263-3.033-0.084-4.431
		c-0.628-2.528,1.03-4.369,1.843-6.306c0.86-2.051,2.938-3.572,4.393-5.396c1.851-2.323,3.545-4.773,5.43-7.066
		c1.238-1.505,2.784-2.756,4.033-4.253c1.361-1.634,2.495-3.454,3.811-5.128c0.795-1.013,1.787-1.869,2.619-2.855
		c1.186-1.404,2.291-2.877,3.461-4.296c1.499-1.82,3.076-3.579,4.531-5.432c1.366-1.738,2.582-3.595,3.935-5.345
		c0.731-0.947,1.583-1.808,2.432-2.658c0.581-0.583,1.17-1.308,1.897-1.56c0.963-0.334,1.501,0.119,1.745,1.337
		c0.501,2.506,1.178,5.009,2.105,7.388c0.766,1.965,1.676,4.079,3.135,5.498c0.932,0.906,1.111,1.732,1.494,2.737
		c0.312,0.819,1.07,1.479,1.667,2.177c2.151,2.513,4.249,5.074,6.502,7.491c1.312,1.407,2.885,2.571,4.335,3.849
		c1.705,1.5,3.349,3.077,5.127,4.486c1.074,0.851,2.365,1.427,3.536,2.162c0.921,0.579,1.799,1.228,2.711,1.822
		c2.506,1.633,4.646,3.862,7.638,4.707c0.605,2.127,3.631,0.605,4.206,2.786c0.011,0.044,0.101,0.076,0.159,0.099
		c1.653,0.621,3.342,1.163,4.952,1.88c1.93,0.861,3.786,1.89,5.694,2.803c0.446,0.212,1.005,0.184,1.458,0.386
		c0.691,0.307,1.338,0.714,1.999,1.088c0.163,0.092,0.292,0.274,0.462,0.318c2.359,0.61,4.733,1.165,7.078,1.824
		c0.701,0.197,1.329,0.665,1.981,1.026c0.158,0.087,0.299,0.371,0.409,0.351c2.562-0.474,4.542,1.296,6.858,1.777
		c1.433,0.297,2.793,0.945,4.226,1.241c1.248,0.258,2.571,0.144,3.825,0.383c0.927,0.176,1.788,0.684,2.696,0.993
		c0.6,0.205,1.223,0.406,1.848,0.457c1.861,0.153,3.736,0.164,5.589,0.374c0.665,0.076,1.269,0.596,1.926,0.849
		c0.57,0.218,1.17,0.467,1.767,0.493c2.961,0.13,5.924,0.182,8.886,0.283c0.581,0.02,1.158,0.137,1.737,0.208
		C146.273,63.529,146.271,63.679,146.269,63.829z"/>
	<path d="M190.519,72.85c6.219,0,12.388,0,18.618,0c0.324,1.278,0.104,2.186-0.471,3.484c-0.883,1.993-0.64,4.498-0.751,6.792
		c-0.01,0.204,0.879,0.643,1.355,0.648c3.865,0.044,7.733,0.035,11.599-0.023c0.582-0.009,1.17-0.328,1.738-0.549
		c0.623-0.243,1.228-0.775,1.838-0.77c2.217,0.018,3.391-1.339,4.676-2.872c0.615-0.733,1.234-1.433,1.823-2.214
		c1.428-1.897,1.522-3.388,0.11-5.231c-0.497-0.648-0.514-1.665-0.745-2.496c-3.708-3.09-8.192-1.897-12.412-1.978
		c-7.859-0.148-15.723-0.042-23.585-0.042c-0.698,0-1.397,0-2.222,0c-0.12-1.49-0.671-2.888,0.91-3.851
		c0.135-0.082,0.198-0.332,0.234-0.515c0.616-3.054,1.345-6.091,1.791-9.17c0.375-2.588,1.65-3.935,4.292-3.937
		c9.021-0.004,18.044-0.031,27.064,0.042c0.965,0.008,1.901,0.732,2.891,0.915c1.505,0.277,3.041,0.393,4.568,0.536
		c1.434,0.135,2.93-0.071,4.059,1.212c0.286,0.324,0.952,0.467,1.431,0.442c2.004-0.1,3.03,1.437,4.365,2.468
		c0.285,0.221,0.57,0.493,0.901,0.597c1.963,0.617,2.843,2.206,3.715,3.882c0.813,1.562,1.83,3.017,2.693,4.555
		c0.237,0.421,0.341,0.969,0.345,1.458c0.028,3.864,0.04,7.729-0.013,11.592c-0.006,0.496-0.387,0.997-0.633,1.475
		c-0.227,0.437-0.75,0.866-0.721,1.267c0.177,2.403-1.448,3.766-2.768,5.394c-0.772,0.953-0.767,2.344-2.204,3.046
		c-1.367,0.667-2.521,1.863-3.612,2.979c-1.311,1.345-3.534,1.08-4.641,2.849c-0.252,0.402-1.445,0.283-2.205,0.281
		c-1.164-0.004-2.206,0.385-2.292,1.561c-0.085,1.16,0.3,2.363,0.548,3.531c0.053,0.252,0.501,0.404,0.6,0.666
		c0.721,1.903,0.987,4.164,2.206,5.646c1.277,1.554,0.746,3.888,2.646,5.017c0.293,0.174,0.15,0.983,0.35,1.438
		c0.241,0.551,0.645,1.028,0.95,1.556c0.203,0.35,0.393,0.715,0.525,1.094c0.342,0.979,0.65,1.971,1.104,3.36
		c-0.527,0.126-1.448,0.526-2.373,0.538c-5.542,0.059-11.083,0.047-16.625,0.008c-0.881-0.006-1.761-0.273-2.172-0.343
		c-1.349-2.877-2.602-5.414-3.73-8.002c-0.771-1.767-1.278-3.649-2.069-5.406c-0.722-1.598-1.667-3.098-2.518-4.64
		c-0.09-0.162-0.301-0.307-0.302-0.463c-0.037-2.361-1.706-2.135-3.272-2.096c-0.773,0.02-1.546,0-2.32,0.006
		c-2.509,0.016-4.078,1.539-4.287,3.99c-0.129,1.536,0.508,3.338-1.371,4.391c-0.237,0.134-0.167,0.848-0.205,1.296
		c-0.146,1.69,0.165,3.446-1.34,4.851c-0.419,0.391-0.209,1.479-0.248,2.249c-0.159,3.171-1.2,4.188-4.322,4.19
		c-4.446,0.004-8.894,0.02-13.339-0.018c-0.823-0.006-1.676-0.142-2.446-0.414c-0.271-0.097-0.53-1.111-0.462-1.152
		c1.699-1.02,0.971-2.766,1.339-4.176c0.239-0.916,0.702-1.773,1.07-2.654c0.049-0.116,0.162-0.213,0.189-0.33
		c0.611-2.695,1.264-5.385,1.798-8.096c0.235-1.188-0.303-2.621,1.248-3.31c0.083-0.036,0.117-0.222,0.144-0.343
		c0.6-2.854,1.146-5.717,1.815-8.551c0.278-1.18,0.812-2.299,1.236-3.443c0.043-0.116,0.166-0.208,0.192-0.325
		c0.641-2.806,1.212-5.629,1.932-8.416C189.222,76.494,189.908,74.715,190.519,72.85z"/>
	<path d="M267.986,46.893c5.417,0,10.886-0.028,16.353,0.058c0.403,0.006,1.185,0.906,1.123,1.279
		c-0.393,2.365,0.726,5.021-1.418,7.096c-0.439,0.424-0.266,1.475-0.383,2.236c-0.216,1.404-0.542,2.671-1.206,4.045
		c-1.16,2.393-1.35,5.264-1.875,7.948c-0.066,0.339,0.296,0.762,0.459,1.146c0.295-0.241,0.577-0.501,0.888-0.719
		c1.081-0.758,2.123-1.587,3.271-2.229c1.8-1.005,3.662-1.903,5.523-2.792c0.444-0.212,0.987-0.291,1.487-0.297
		c1.996-0.029,3.996-0.071,5.987,0.039c0.572,0.032,1.12,0.55,1.667,0.865c0.157,0.09,0.274,0.367,0.406,0.364
		c1.625-0.026,2.957,0.532,4.186,1.632c0.95,0.85,2.141,1.428,2.872,2.365c0.59,0.876,1.178,1.754,1.769,2.629
		c0.07,0.104,0.197,0.19,0.223,0.301c0.524,2.26,1.084,4.514,1.527,6.791c0.157,0.807,0.058,1.671,0.018,2.508
		c-0.065,1.351,0.323,2.763-0.945,3.915c-0.412,0.374-0.283,1.34-0.404,2.035c-0.282,1.604,0.244,3.282-1.293,4.748
		c-0.695,0.664-0.236,2.469-0.457,3.729c-0.115,0.658-0.622,1.238-0.857,1.888c-0.273,0.752-0.51,1.53-0.644,2.317
		c-0.256,1.512,0.306,3.258-1.314,4.359c-0.043,0.03-0.067,0.115-0.069,0.176c-0.045,2.551-0.664,4.928-1.708,7.284
		c-0.875,1.976-1.193,4.192-1.891,6.257c-0.116,0.346-0.912,0.65-1.396,0.655c-5.219,0.044-10.438,0.042-15.657-0.005
		c-0.588-0.004-1.175-0.373-1.762-0.573c0.243-0.506,0.582-0.993,0.708-1.526c0.25-1.051,0.298-2.151,0.585-3.188
		c0.287-1.038,0.757-2.024,1.157-3.03c0.069-0.174,0.234-0.318,0.271-0.496c0.588-2.812,1.179-5.625,1.729-8.445
		c0.198-1.018-0.017-2.022,1.145-2.842c0.566-0.399,0.357-1.912,0.483-2.922c0.148-1.191-0.394-2.604,1.216-3.314
		c0.233-0.104,0.255-0.821,0.272-1.258c0.071-1.803,0.144-3.606,0.137-5.409c-0.011-2.951-1.194-4.156-4.18-4.282
		c-1.22-0.05-2.447,0.042-3.668,0.001c-1.756-0.061-2.601,1.272-3.633,2.308c-0.56,0.562-1.121,1.155-1.531,1.827
		c-0.927,1.512-1.762,3.08-2.63,4.625c-0.062,0.11-0.121,0.231-0.149,0.354c-0.701,3.1-1.366,6.21-2.114,9.299
		c-0.238,0.983-0.726,1.905-1.032,2.876c-0.209,0.666-0.32,1.366-0.442,2.057c-0.262,1.483,0.458,3.273-1.408,4.266
		c-0.196,0.104-0.116,0.722-0.169,1.1c-0.209,1.484,0.305,3.078-1.242,4.325c-0.541,0.437-0.18,1.871-0.482,2.765
		c-0.189,0.559-0.837,1.363-1.293,1.373c-5.602,0.118-11.208,0.135-16.811,0.11c-1.083-0.005-1.804-2.522-0.768-3.183
		c1.458-0.926,1.046-2.162,1.228-3.351c0.2-1.304-0.432-2.916,1.322-3.669c0.078-0.033,0.101-0.227,0.125-0.352
		c0.584-2.936,1.127-5.881,1.77-8.803c0.178-0.804,0.65-1.543,0.991-2.308c0.078-0.175,0.215-0.33,0.259-0.511
		c0.694-2.908,1.423-5.809,2.044-8.732c0.267-1.251-0.005-2.516,1.109-3.665c0.609-0.627,0.268-2.106,0.539-3.154
		c0.25-0.968,0.742-1.875,1.134-2.805c0.073-0.17,0.225-0.318,0.261-0.492c0.603-2.971,1.164-5.95,1.804-8.912
		c0.152-0.7,0.551-1.348,0.854-2.011c0.103-0.223,0.337-0.401,0.386-0.627c0.687-3.225,1.312-6.464,2.05-9.677
		c0.196-0.852,0.721-1.627,1.091-2.439c0.127-0.281,0.383-0.588,0.344-0.847C265.529,51.343,267.099,49.292,267.986,46.893z"/>
	<path d="M668.372,119.557c-2.269,0-4.505,0-6.742,0c-3.414,0-6.828,0.027-10.242-0.025c-0.644-0.011-1.803-0.277-1.831-0.527
		c-0.112-0.967,0.034-2.002,0.286-2.959c0.196-0.748,0.851-1.381,1.019-2.129c0.394-1.736-0.077-3.656,1.509-5.125
		c0.432-0.399,0.223-1.477,0.331-2.24c0.186-1.312-0.321-2.812,1.214-3.768c0.323-0.199,0.235-1.078,0.312-1.646
		c0.168-1.25-0.219-2.518,1.165-3.59c0.634-0.488,0.349-2.174,0.469-3.317c0.104-1.028-0.116-2.019,1.065-2.829
		c1.065-0.729,0.387-5.142-0.49-6.238c-0.518-0.646-0.619-1.622-1.016-2.751c-2.511,0-5.201-0.183-7.843,0.093
		c-1.01,0.105-2.178,1.072-2.812,1.972c-1.979,2.809-2.938,6.014-3.899,9.344c-0.651,2.256-0.522,4.764-1.573,6.684
		c-0.953,1.744-0.544,3.799-1.423,5.076c-1.483,2.155-0.574,4.83-1.702,6.496c-1.259,1.855-1.085,3.621-1.408,5.457
		c-0.248,1.402-1.192,1.977-2.431,1.989c-5.154,0.05-10.308,0.031-15.459,0.003c-0.406-0.003-1.169-0.305-1.16-0.418
		c0.167-2.033,0.408-4.059,0.694-6.078c0.03-0.222,0.669-0.439,0.639-0.576c-0.59-2.727,1.358-4.834,1.757-7.322
		c0.21-1.303,0.811-2.545,1.234-3.813c0.039-0.12,0.101-0.233,0.125-0.356c0.65-3.104,1.277-6.211,1.966-9.305
		c0.142-0.635,0.505-1.222,0.778-1.822c0.133-0.291,0.366-0.547,0.435-0.848c0.656-2.917,1.309-5.835,1.915-8.763
		c0.232-1.117-0.164-2.272,1.197-3.193c0.612-0.415,0.323-2.162,0.445-3.304c0.112-1.035-0.263-2.262,1.131-2.795
		c0.135-0.051,0.236-0.301,0.274-0.476c0.579-2.665,1.103-5.342,1.736-7.992c0.267-1.106,0.766-2.156,1.16-3.231
		c0.042-0.119,0.126-0.227,0.151-0.348c0.675-2.908,1.457-5.797,1.978-8.733c0.346-1.96,1.493-3.258,3.455-3.261
		c5.148-0.005,10.301-0.001,15.717-0.001c-0.052,1.89,1.008,3.787-0.895,5.341c-0.132,0.109-0.2,0.332-0.239,0.514
		c-0.697,3.167-1.353,6.344-2.092,9.5c-0.2,0.866-0.771,1.65-0.949,2.517c-0.28,1.363-0.506,2.767-0.486,4.149
		c0.011,0.758,1.921,0.625,2.797-0.147c1.569-1.381,3.059-2.945,5.444-2.724c0.309,0.029,0.763,0.039,0.928-0.143
		c2.312-2.557,5.412-1.465,7.847-0.974c1.521,0.307,3.692,0.521,4.747,1.436c1.355,1.175,3.617,1.273,4.231,3.54
		c0.315,1.165,1.626,2.042,2.406,3.107c0.28,0.385,0.459,0.942,0.461,1.42c0.011,4.817-0.02,9.633-0.061,14.45
		c-0.004,0.363-0.138,0.746-0.29,1.082c-0.357,0.799-0.928,1.535-1.118,2.363c-0.378,1.637,0.55,3.631-1.453,4.818
		c-0.203,0.119-0.115,0.73-0.165,1.111c-0.189,1.457,0.288,3.088-1.24,4.193c-0.265,0.193-0.229,0.846-0.271,1.29
		c-0.185,1.858,0.191,3.808-1.351,5.399c-0.438,0.453-0.3,1.47-0.418,2.23c-0.195,1.256-0.089,2.432-1.174,3.612
		C668.37,115.829,668.645,117.657,668.372,119.557z"/>
	<path d="M394.694,119.192c-1.415,0.131-2.684,0.337-3.955,0.35c-4.51,0.039-9.021-0.021-13.529,0.031
		c-1.342,0.016-1.975-0.443-1.689-1.797c0.263-1.254-0.605-2.926,1.281-3.615c0.079-0.029,0.113-0.222,0.139-0.345
		c0.594-2.946,1.15-5.901,1.793-8.837c0.18-0.816,0.641-1.566,0.926-2.363c0.234-0.654,0.436-1.322,0.587-2
		c0.344-1.545-0.149-3.287,1.414-4.55c0.437-0.351,0.258-1.461,0.358-2.226c0.193-1.467-0.086-2.938,1.049-4.318
		c0.974-1.186-0.108-4.681-1.433-5.858c-1.622-1.442-6.81-2.246-8.633-1.13c-0.946,0.578-1.476,2.09-2.426,2.36
		c-2.254,0.64-0.89,3.414-2.794,4.172c-0.305,0.123-0.256,1.183-0.338,1.813c-0.146,1.134,0.152,2.244-1.172,3.17
		c-0.623,0.437-0.336,2.162-0.467,3.303c-0.117,1.025,0.266,2.195-1.113,2.814c-0.311,0.139-0.319,1.033-0.399,1.588
		c-0.249,1.72-0.837,3.428-1.155,5.016c-0.507,2.531-1.83,4.807-2.027,7.354c-0.139,1.793-0.414,3.488-1.743,4.789
		c-0.355,0.348-0.966,0.606-1.463,0.611c-4.96,0.044-9.921,0.016-14.881,0.032c-1.395,0.004-1.838-0.642-1.552-1.958
		c0.42-1.926-0.055-4.051,1.534-5.734c0.43-0.457,0.256-1.477,0.374-2.234c0.193-1.25-0.261-2.582,1.179-3.611
		c0.554-0.395,0.266-1.939,0.402-2.955c0.152-1.139-0.339-2.533,1.237-3.137c0.151-0.059,0.233-0.445,0.248-0.688
		c0.119-1.833,0.494-3.474,1.272-5.263c1.239-2.848,1.36-6.173,2.035-9.279c0.178-0.82,0.647-1.58,1.001-2.359
		c0.075-0.166,0.294-0.279,0.335-0.444c0.657-2.66,1.272-5.33,1.948-7.985c0.316-1.237,0.805-2.433,1.099-3.675
		c0.293-1.244,0.441-2.522,0.685-3.969c6.17,0,12.449,0,18.941,0c0.049,0.915,0.102,1.898,0.156,2.94
		c2.291,0.506,3.365-1.283,4.812-2.249c0.236-0.157,0.401-0.676,0.556-0.658c3.192,0.371,5.724-2.58,9.028-1.737
		c1.396,0.356,3.1-0.424,4.135,1.251c0.141,0.227,0.74,0.297,1.096,0.242c2.284-0.354,3.419,1.192,4.643,2.673
		c0.479,0.577,1.218,0.947,1.665,1.541c0.997,1.32,1.932,2.696,2.794,4.107c0.24,0.395,0.198,0.994,0.201,1.5
		c0.021,3.349,0.104,6.701-0.027,10.044c-0.046,1.129-0.656,2.235-1,3.353c-0.134,0.429-0.294,0.854-0.356,1.293
		c-0.256,1.827-0.413,3.53-1.299,5.362c-1.322,2.728-1.569,5.984-2.198,9.033c-0.236,1.143,0.219,2.49-1.177,3.222
		c-0.157,0.082-0.193,0.461-0.223,0.711c-0.197,1.756,0.033,3.51-1.419,5.075c-0.645,0.697-0.261,2.352-0.343,3.57
		C394.772,117.985,394.745,118.431,394.694,119.192z"/>
	<path d="M559.263,114.133c-0.211-1.149,0.271-2.67-1.405-3.342c-0.205-0.082-0.183-0.84-0.189-1.287
		c-0.031-1.996-0.14-4-0.003-5.985c0.059-0.849,0.661-1.653,0.994-2.489c0.186-0.469,0.491-0.967,0.46-1.436
		c-0.146-2.195,1.279-3.361,2.72-4.637c1.42-1.26,2.646-2.731,3.992-4.076c0.239-0.24,0.657-0.291,0.964-0.477
		c0.743-0.449,1.467-0.93,2.201-1.393c0.157-0.097,0.318-0.205,0.493-0.251c5.761-1.567,11.672-2.371,17.53-1.353
		c2.021,0.351,4.084,0.969,6.189,1.279c1.896,0.28,1.735-1.514,2.498-2.299c0.334-0.344-0.045-1.662-0.428-2.358
		c-0.585-1.059-1.45-1.964-2.206-2.929c-0.114-0.147-0.256-0.345-0.413-0.376c-2.45-0.493-5.112-1.789-7.307-1.235
		c-2.998,0.757-6.018,0.748-8.965,1.378c-1.365,0.292-2.612,1.137-4.413,1.959c-0.604-3.74-1.108-6.855-1.613-9.969
		c-0.07-0.443-0.073-0.917-0.245-1.318c-0.289-0.676-0.689-1.305-1.042-1.953c1.12-0.534,1.519-2.111,3.216-1.925
		c1.165,0.128,2.623,0.35,3.31-1.256c0.089-0.211,0.832-0.195,1.272-0.197c7.854-0.027,15.711-0.072,23.566-0.004
		c0.776,0.007,1.551,0.727,2.323,1.119c0.167,0.085,0.316,0.212,0.491,0.272c1.707,0.595,3.455,1.093,5.108,1.81
		c0.689,0.299,1.264,0.994,1.747,1.617c0.813,1.049,1.513,2.188,2.267,3.285c0.354,0.515,0.758,1,1.078,1.536
		c0.214,0.358,0.448,0.78,0.451,1.174c0.029,4.056,0.016,8.112,0.013,12.167c-2.374,2.217-0.59,5.879-2.827,8.147
		c-0.08,0.082-0.098,0.236-0.125,0.36c-0.642,3.112-1.238,6.233-1.947,9.33c-0.208,0.905-0.733,1.737-1.125,2.599
		c-0.051,0.112-0.239,0.215-0.224,0.297c0.521,2.697-1.607,4.801-1.677,7.295c-0.057,1.951-0.887,2.367-2.562,2.352
		c-4.959-0.047-9.922,0.014-14.881-0.055c-0.631-0.008-1.255-0.521-1.882-0.801c0.298-0.605,0.595-1.211,0.981-2.002
		c-0.847-0.252-1.86-1.625-2.721,0.42c-0.062,0.149-0.25,0.287-0.41,0.35c-1.771,0.693-3.825,1.014-5.271,2.126
		c-3.223,2.479-6.77,1.211-10.094,1.108c-1.767-0.057-3.858-1.039-5.365-2.594C562.416,116.702,560.823,115.493,559.263,114.133z
		 M576.95,107.316c1.339,0.702,2.312,1.263,3.327,1.733c1.286,0.601,2.33-0.334,3.448-0.531c2.594-0.455,3.994-2.318,5.764-3.725
		c0.852-0.676,1.25-1.926,1.843-2.924c0.396-0.668,0.857-1.314,1.127-2.031c0.161-0.437,0.218-1.172-0.033-1.459
		c-1.066-1.205-2.392-1.867-4.112-1.666c-2.604,0.302-5.16-0.42-7.805,1.238c-2.573,1.613-3.667,2.123-3.724,5.328
		C576.762,104.686,576.896,106.096,576.95,107.316z"/>
	<path d="M425.777,98.39c-0.997,2.336,0.878,3.485,1.742,4.896c0.697,1.133,1.94,1.948,3.011,2.818
		c0.304,0.247,0.852,0.262,1.287,0.264c2.699,0.024,5.402,0.063,8.1-0.029c0.562-0.021,1.104-0.574,1.652-0.883
		c0.35-0.197,0.677-0.476,1.051-0.574c0.899-0.241,2.077,0.186,2.431-1.315c0.041-0.168,2.219-0.278,2.908,0.243
		c1.61,1.218,3.104,2.701,4.295,4.332c1.128,1.543,2.917,2.928,2.374,5.271c-0.071,0.307-0.095,0.815-0.266,0.877
		c-2.165,0.768-3.213,3.489-5.875,3.356c-1.794,2.677-5.228,1.046-7.541,2.911c-1.141,0.917-3.479,0.404-5.275,0.428
		c-2.448,0.032-4.903,0.066-7.338-0.123c-1.102-0.085-2.16-0.701-3.238-1.078c-0.18-0.064-0.353-0.146-0.532-0.203
		c-2.127-0.697-4.284-1.312-6.367-2.121c-0.834-0.324-1.609-0.975-2.229-1.645c-1.229-1.33-2.271-2.832-3.501-4.16
		c-1.993-2.15-2.387-4.965-3.491-7.488c-1.489-3.406-1.345-6.721-1.056-10.084c0.231-2.697,0.804-5.475,1.836-7.965
		c0.916-2.209,2.428-4.162,3.038-6.577c0.202-0.796,1.13-1.405,1.722-2.104c1.024-1.212,2.034-2.437,3.071-3.639
		c0.31-0.358,0.664-0.682,1.028-0.985c1.229-1.02,2.474-2.021,3.71-3.034c0.095-0.078,0.141-0.238,0.242-0.279
		c1.566-0.625,3.14-1.236,4.714-1.845c0.117-0.046,0.312,0.008,0.373-0.064c1.686-2.089,4.464-0.722,6.188-1.767
		c3.351-2.027,6.779-0.923,10.162-1.118c0.788-0.045,1.604,0.678,2.435,0.971c0.582,0.206,1.212,0.283,1.82,0.417
		c1.174,0.258,2.786-0.592,3.319,1.339c0.039,0.146,0.577,0.211,0.886,0.217c1.779,0.031,2.596,1.454,3.658,2.509
		c0.757,0.752,1.438,1.581,2.206,2.321c1.194,1.156,2.575,2.176,2.612,4.069c0.002,0.128-0.034,0.312,0.034,0.378
		c2.709,2.535,1.339,5.86,1.609,8.826c0.247,2.676-0.021,5.403-0.099,8.105c-0.104,3.621-0.922,4.386-4.597,4.386
		c-9.789,0-19.58-0.004-29.371,0.006C427.573,98.25,426.627,98.344,425.777,98.39z M436.369,88.536c0,0.011,0,0.023,0,0.035
		c2.568,0,5.139-0.055,7.705,0.021c1.671,0.049,2.303-0.687,2.231-2.288c-0.075-1.703,0.229-3.393-1.438-4.726
		c-1.229-0.983-1.913-2.674-3.842-2.646c-1.478,0.022-2.954,0.01-4.429,0.05c-0.438,0.013-1.164,0.026-1.262,0.251
		c-0.754,1.756-3.104,1.042-4.034,2.914c-0.669,1.348-2.669,1.991-2.945,3.887c-0.047,0.323-0.375,0.6-0.563,0.906
		c-0.213,0.348-0.414,0.704-0.62,1.057c0.434,0.179,0.863,0.505,1.3,0.513C431.104,88.559,433.735,88.536,436.369,88.536z"/>
	<path d="M517.283,71.988c1.015,1.723-1.541,2.261-2.066,3.708c-0.359,0.993-1.636,1.617-2.349,2.527
		c-1.315,1.679-2.487,3.471-3.805,5.148c-0.182,0.229-0.915,0.213-1.288,0.058c-0.749-0.31-1.433-0.788-2.135-1.208
		c-1.526-0.912-3.03-1.864-4.586-2.729c-0.521-0.291-1.155-0.402-1.753-0.536c-1.759-0.397-3.538-0.709-5.28-1.16
		c-1.855-0.48-2.914,0.953-4.264,1.665c-0.395,0.208-0.67,0.719-0.894,1.148c-0.188,0.357-0.427,1.042-0.288,1.157
		c0.922,0.771,1.936,1.433,2.927,2.121c0.554,0.384,1.122,0.748,1.679,1.13c0.102,0.068,0.195,0.272,0.252,0.257
		c2.116-0.568,3.25,1.515,5.075,1.876c1.559,0.309,3.06,1.12,4.461,1.925c1.481,0.851,3.023,1.769,4.151,3.009
		c0.896,0.983,1.657,2.248,2.407,3.381c2.376,3.582,0.93,7.332,1.217,10.979c0.041,0.52-0.524,1.094-0.838,1.625
		c-0.121,0.204-0.459,0.355-0.465,0.538c-0.057,1.406-0.985,2.399-1.498,3.571c-0.867,1.984-2.083,3.226-3.952,4.154
		c-1.147,0.568-2.095,1.541-3.131,2.332c-0.102,0.076-0.197,0.184-0.312,0.215c-2.458,0.68-4.884,1.709-7.383,1.938
		c-3.641,0.337-7.333,0.143-11.002,0.079c-1.403-0.022-2.947,0.354-4.027-1.172c-0.265-0.372-1.215-0.235-1.841-0.376
		c-1.523-0.344-3.421,0.333-4.384-1.577c-0.021-0.044-0.113-0.056-0.173-0.076c-1.756-0.583-3.636-0.944-5.234-1.817
		c-1.488-0.812-2.77-2.082-3.952-3.33c-0.358-0.377-0.329-1.461-0.061-2.022c0.584-1.224,1.349-2.39,2.198-3.45
		c1.423-1.777,2.84-3.599,4.533-5.09c0.579-0.508,1.987-0.134,3.007-0.037c0.282,0.026,0.506,0.715,0.784,0.735
		c1.947,0.142,2.827,2.709,5.036,2.181c1.165,2.5,3.945,1.471,5.865,2.5c1.911,1.021,4.742,0.33,7.168,0.389
		c0.054-1.398,2.338-1.006,2.108-2.881c-0.222-1.791-1.504-2.474-2.635-3.145c-1.954-1.158-4.12-1.956-6.204-2.893
		c-0.466-0.209-0.947-0.512-1.43-0.524c-2.075-0.052-3.365-1.476-4.83-2.606c-0.247-0.19-0.531-0.416-0.82-0.451
		c-1.786-0.229-2.313-2.236-3.547-2.758c-2.252-0.953-1.057-3.423-2.735-4.722c-0.861-0.664-0.449-3.169-0.347-4.827
		c0.095-1.528-0.698-3.41,1.303-4.42c0.106-0.054,0.066-0.364,0.134-0.541c0.605-1.627,0.917-3.477,1.913-4.818
		c1.14-1.535,2.85-2.664,4.382-3.882c1.282-1.019,2.584-2.069,4.031-2.803c0.854-0.433,2.009-0.259,3.026-0.384
		c1.143-0.14,2.48,0.334,3.198-1.167c0.126-0.261,0.94-0.26,1.438-0.265c2.832-0.026,5.666-0.051,8.498-0.006
		c1.023,0.017,2.068-0.214,2.861,1.041c0.319,0.506,1.792,0.24,2.723,0.419c1.318,0.253,3.063-0.648,3.787,1.335
		c0.025,0.078,0.225,0.095,0.346,0.137c1.704,0.583,3.465,1.042,5.093,1.791C514.608,69.951,515.666,70.888,517.283,71.988z"/>
	<path d="M523.774,66.12c2.145,0,4.124,0,6.105,0c0.487-2.655,2.259-4.699,2.189-7.505c-0.042-1.636,1.171-3.304,1.979-5.365
		c5.799,0,12.111,0,19.042,0c-0.591,1.375-1.145,2.403-1.47,3.499c-0.306,1.027-0.358,2.129-0.546,3.195
		c-0.201,1.162,0.417,2.553-1.262,3.31c-0.39,0.175-0.189,1.651-0.297,2.997c4.313,0,8.425,0,12.099,0
		c-0.357,2.109-0.151,4.167-1.048,5.454c-1.489,2.132-0.898,4.51-1.668,6.568c-0.429,1.148-1.358,2.999-3.629,2.677
		c-2.021-0.287-4.113-0.062-6.176-0.06c-3.273,0.003-4.13,0.823-4.586,4.092c-0.103,0.736-0.641,1.412-0.991,2.107
		c-0.084,0.167-0.335,0.322-0.317,0.459c0.32,2.64-1.288,4.816-1.719,7.27c-0.241,1.372,0.074,2.733-1.239,4.001
		c-0.716,0.691-0.297,2.559-0.352,3.328c0.807,0.988,1.277,1.564,1.746,2.143c0.04,0.049,0.057,0.117,0.101,0.162
		c0.697,0.697,6.819,0.271,7.587-0.472c0.379-0.366,0.895-0.593,1.551-0.724c-0.168,1.812,1.092,3.691-0.958,5.164
		c-0.494,0.356-0.253,1.691-0.415,2.566c-0.246,1.325,0.531,2.944-1.271,3.866c-0.359,0.185-0.257,1.317-0.326,2.015
		c-0.072,0.692-0.097,1.391-0.108,1.578c-4.936,3.021-10.092,2.465-15.172,2.479c-2.948,0.006-5.424-1.131-7.608-3.045
		c-1.385-1.211-2.834-2.351-4.216-3.564c-0.188-0.167-0.22-0.584-0.22-0.886c-0.007-4.185-0.618-8.503,0.255-12.497
		c0.486-2.221,0.582-4.836,1.705-6.725c1.056-1.774,0.914-3.439,1.232-5.184c0.127-0.686,0.807-1.287,0.884-1.966
		c0.214-1.89,0.295-3.801,0.26-5.701c-0.001-0.167-1.215-0.427-1.872-0.448c-2.616-0.086-2.641-0.059-2.49-2.705
		c0.058-1.016-0.273-2.262,1.216-2.665c0.104-0.028,0.154-0.335,0.192-0.519C522.551,72.146,523.134,69.269,523.774,66.12z"/>
	<path fill="#A52038" d="M138.361,80.011c-0.341,0.104-0.676,0.272-1.023,0.297c-1.219,0.086-2.449,0.059-3.663,0.189
		c-2.987,0.319-6.009-0.348-8.974,1.22c-1.611,0.852-3.914,0.353-5.894,0.565c-1.699,0.181-3.36-0.103-5.065,1.034
		c-1.21,0.806-3.25,0.311-4.904,0.521c-1.493,0.189-3.262-0.482-4.323,1.334c-0.155,0.265-0.971,0.122-1.474,0.207
		c-2.226,0.377-4.681-0.677-6.68,1.417c-0.55,0.576-2.105,0.165-3.195,0.258c-1.167,0.1-2.309-0.094-3.316,1.061
		c-0.5,0.573-1.934,0.337-2.946,0.457c-1.219,0.142-2.639-0.293-3.378,1.208c-0.043,0.09-0.214,0.137-0.333,0.162
		C80.1,90.61,77,91.243,73.919,91.961c-1.006,0.233-1.953,0.713-2.944,1.024c-0.662,0.208-1.35,0.337-2.034,0.464
		c-1.108,0.207-2.553-0.359-3.001,1.342c-0.021,0.08-0.234,0.179-0.33,0.154c-2.878-0.701-4.993,1.857-7.734,1.819
		c-0.521-0.009-1.038,0.515-1.576,0.75c-0.564,0.247-1.134,0.532-1.73,0.642c-1.202,0.217-2.563-0.189-3.345,1.322
		c-0.18,0.346-1.224,0.178-1.812,0.398c-0.937,0.349-1.825,0.826-2.732,1.252c-0.17,0.08-0.322,0.213-0.5,0.264
		c-2.129,0.609-4.691,0.672-6.278,1.949c-1.72,1.385-3.708,0.861-5.216,1.791c-1.996,1.229-4.043,2.135-6.242,2.895
		c-1.57,0.541-2.961,1.605-4.427,2.448c-0.215,0.123-0.381,0.349-0.605,0.438c-1.645,0.653-3.354,1.17-4.934,1.953
		c-1.48,0.732-2.828,1.736-4.232,2.625c-0.158,0.098-0.289,0.254-0.457,0.317c-1.638,0.606-3.353,1.06-4.903,1.837
		c-1.435,0.721-2.644,1.88-4.054,2.666c-0.728,0.406-1.67,0.456-2.528,0.553c-0.085,0.008-0.507-0.984-0.357-1.164
		c1.971-2.344,4.269-4.455,5.976-6.971c1.728-2.547,4.572-4.24,5.482-7.421c0.223-0.778,1.139-1.41,1.835-1.99
		c1.816-1.514,3.235-3.312,4.516-5.305c1.062-1.649,2.577-3.009,3.896-4.491c0.706-0.794,1.782-1.473,2.059-2.393
		c0.556-1.854,1.849-2.901,3.168-4.106c1.306-1.193,2.217-2.811,3.493-4.044c0.989-0.957,2.285-1.591,3.424-2.398
		c4.119-2.923,8.826-1.644,13.263-1.663c27.567-0.121,55.136-0.063,82.703-0.055c1.674,0,3.349,0.053,5.02,0.142
		c0.555,0.029,1.1,0.249,1.65,0.381C138.409,79.595,138.386,79.803,138.361,80.011z"/>
	<path d="M698.564,46.955c5.156,0,10.811,0,16.781,0c0,1.834,0.646,4.001-0.143,5.297c-1.361,2.24-0.537,4.984-1.684,6.707
		c-1.284,1.935-0.565,4.093-1.557,5.596c-1.433,2.168-0.614,4.72-1.686,6.642c-1.062,1.903-0.71,4.103-1.614,5.688
		c-1.134,1.987-0.698,4.273-1.647,5.917c-1.218,2.113-0.534,4.54-1.575,6.278c-1.101,1.833-0.563,4.069-1.515,5.373
		c-1.496,2.051-0.625,4.463-1.671,6.174c-1.243,2.029-0.585,4.358-1.566,6.101c-1.228,2.179-0.756,4.739-1.815,6.604
		c-1.082,1.901-1.069,3.781-1.438,5.859c-1.116,0.125-2.188,0.338-3.266,0.348c-4.316,0.039-8.635,0.043-12.952-0.004
		c-0.924-0.011-2.598-0.182-2.636-0.455c-0.188-1.361-0.457-3.209,0.268-4.082c1.142-1.371,0.936-2.803,1.298-4.222
		c0.247-0.981,0.766-1.896,1.171-2.836c0.048-0.112,0.184-0.2,0.207-0.315c0.586-2.687,1.181-5.373,1.727-8.067
		c0.227-1.119-0.197-2.304,1.203-3.19c0.569-0.361,0.293-2.041,0.42-3.117c0.129-1.088-0.319-2.399,1.15-2.988
		c0.136-0.055,0.236-0.303,0.272-0.477c0.584-2.859,1.116-5.728,1.753-8.574c0.195-0.87,0.667-1.679,1.021-2.512
		c0.072-0.172,0.231-0.315,0.275-0.49c0.678-2.713,1.378-5.42,1.992-8.146c0.332-1.476-0.378-3.222,1.312-4.346
		c0.282-0.188,0.186-0.971,0.238-1.479c0.143-1.343-0.109-2.671,1.211-3.817c0.604-0.522,0.3-2.072,0.439-3.151
		c0.129-0.999-0.368-2.263,1.154-2.709c0.169-0.049,0.268-0.554,0.291-0.856C696.168,51.31,695.926,48.79,698.564,46.955z"/>
	<path d="M326.126,66.127c5.511,0,11.297-0.012,17.085,0.022c0.451,0.002,0.9,0.317,1.351,0.487
		c-0.197,0.42-0.442,0.825-0.578,1.263c-0.241,0.77-0.479,1.551-0.602,2.346c-0.236,1.522,0.295,3.271-1.367,4.343
		c-0.042,0.027-0.049,0.115-0.062,0.177c-0.659,2.842-1.293,5.69-1.988,8.523c-0.229,0.931-0.643,1.817-0.924,2.738
		c-0.223,0.729-0.399,1.475-0.552,2.222c-0.296,1.448,0.329,3.03-1.335,4.273c-0.638,0.478-0.24,2.313-0.357,3.524
		c-0.086,0.894,0.271,2.015-1.096,2.338c-0.13,0.029-0.312,0.307-0.292,0.443c0.372,2.562-1.242,4.651-1.657,7.022
		c-0.273,1.556,0.372,3.37-1.363,4.521c-0.229,0.152-0.168,0.729-0.26,1.104c-0.604,2.461-1.169,4.934-1.874,7.367
		c-0.098,0.34-0.891,0.673-1.365,0.678c-5.407,0.041-10.814,0.033-16.22-0.016c-0.502-0.004-1.001-0.389-1.502-0.599
		c0.226-0.526,0.501-1.038,0.665-1.584c0.322-1.077,0.671-2.159,0.845-3.263c0.193-1.232-0.111-2.594,1.197-3.439
		c0.13-0.082,0.168-0.342,0.209-0.527c0.624-2.842,1.273-5.68,1.843-8.534c0.24-1.204-0.241-2.647,1.296-3.345
		c0.088-0.039,0.144-0.207,0.168-0.324c0.597-2.904,1.154-5.817,1.802-8.71c0.182-0.812,0.627-1.569,0.961-2.346
		c0.073-0.17,0.241-0.309,0.281-0.482c0.651-2.785,1.312-5.569,1.921-8.364c0.311-1.424-0.267-3.147,1.444-4.08
		c0.082-0.044,0.111-0.23,0.12-0.354c0.086-1.284-0.038-2.625,0.302-3.835C324.546,68.559,325.352,67.536,326.126,66.127z"/>
	<path fill="#A52038" d="M151.274,49.854c-2.012,0-4.034,0.121-6.034-0.035c-1.827-0.142-3.599,0.115-5.465-1.066
		c-1.419-0.898-3.759-0.292-5.679-0.466c-1.302-0.119-2.818,0.463-3.748-1.202c-0.201-0.361-1.324-0.18-2.012-0.304
		c-2.094-0.374-4.504,0.786-6.264-1.388c-0.286-0.353-1.231-0.168-1.87-0.241c-1.536-0.175-3.277,0.327-4.365-1.327
		c-0.029-0.044-0.115-0.056-0.177-0.072c-2.54-0.63-5.089-1.231-7.617-1.908c-0.681-0.182-1.3-0.593-1.951-0.893
		c-0.405-0.187-0.801-0.404-1.223-0.538c-1.955-0.619-4.03-0.992-5.832-1.907c-0.957-0.486-1.901-1.833-2.049-2.903
		c-0.315-2.271-0.281-4.634-0.027-6.919c0.106-0.954,1.074-1.858,1.761-2.694c1.506-1.834,3.059-3.633,4.643-5.4
		c0.903-1.008,2.006-1.847,2.845-2.901c1.833-2.306,3.516-4.732,5.345-7.041c0.738-0.933,1.698-1.691,2.558-2.528
		c0.128-0.125,0.265-0.241,0.389-0.367c0.365-0.372,0.726-0.747,1.087-1.12c0.137,0.577,0.383,1.154,0.391,1.733
		c0.052,3.604,0.002,7.211,0.092,10.813c0.033,1.325-0.428,2.921,1.3,3.698c0.08,0.036,0.094,0.225,0.136,0.343
		c0.624,1.753,0.995,3.658,1.936,5.22c1.204,2.001,2.835,3.751,4.34,5.561c1.173,1.41,2.343,2.846,3.688,4.082
		c0.976,0.897,2.234,1.489,3.369,2.213c2.308,1.471,4.485,3.243,6.966,4.311c1.973,0.851,3.647,2.705,6.123,2.297
		c0.332-0.055,0.949,0.076,1.027,0.278c0.569,1.465,1.84,1.124,2.937,1.254c1.152,0.138,2.303,0.287,3.454,0.431
		C151.325,49.195,151.3,49.525,151.274,49.854z"/>
	<path fill="#7E7E7E" d="M599.512,162.499c0-1.224-0.022-2.445,0.006-3.668c0.029-1.19,1.827-5.017,2.697-5.904
		c0.162-0.168,0.267-0.439,0.297-0.676c0.254-1.898,1.896-2.719,2.957-4.017c1.337-1.633,3.198-2.366,4.68-3.539
		c1.404-1.112,2.628-1.002,3.971-1.321c0.249-0.059,0.64,0.021,0.745-0.121c1.455-1.998,3.573-1.164,5.436-1.228
		c0.701-0.022,1.426,0.513,2.13,0.812c0.286,0.121,0.581,0.459,0.821,0.416c2.345-0.418,3.946,1.277,5.789,2.137
		c1.035,0.482,1.626,1.847,2.526,2.701c2.014,1.908,1.674,4.765,2.854,7.049c0.617,1.189-0.17,3.121-0.378,4.71
		c-0.044,0.351-0.498,0.704-0.449,1.005c0.475,2.863-1.421,5.036-2.181,7.529c-0.234,0.773-0.936,1.47-1.564,2.043
		c-1.396,1.279-2.904,2.43-4.325,3.683c-5.003,4.407-10.966,3.621-16.795,2.888c-1.533-0.193-2.869-1.76-4.354-2.599
		c-2.381-1.349-3.095-3.972-4.346-6.058c-0.926-1.545-0.569-3.855-0.785-5.828C599.332,162.508,599.422,162.504,599.512,162.499z
		 M607.852,172.097c0.074-0.032,0.146-0.063,0.222-0.095c1.04,0.649,2.005,1.603,3.139,1.895c3.721,0.961,7.191-0.355,10.635-1.594
		c0.1-0.035,0.146-0.197,0.232-0.285c0.815-0.835,1.674-1.639,2.449-2.512c1.594-1.793,3.816-3.17,4.021-5.916
		c0.019-0.236,0.123-0.633,0.26-0.668c1.449-0.364,1.097-1.569,1.133-2.504c0.074-1.928,0.035-3.861,0.016-5.791
		c-0.005-0.441-0.022-1.215-0.206-1.272c-1.941-0.592-0.779-3.09-2.76-4.042c-1.374-0.659-2.308-2.609-4.196-2.691
		c-2.696-0.115-5.431-0.248-8.093,0.082c-1.405,0.176-2.875,1.104-3.982,2.072c-1.37,1.199-2.313,2.871-3.594,4.193
		c-1.066,1.105-2.629,4.01-2.857,5.33c-0.189,1.109-0.785,2.143-1.067,3.244c-0.168,0.653-0.226,1.408-0.068,2.057
		c0.358,1.496,0.851,2.964,1.348,4.422c0.145,0.428,0.455,0.816,0.758,1.165C606.088,170.172,606.979,171.129,607.852,172.097z"/>
	<path fill="#7E7E7E" d="M386.065,177.543c-1.83-0.107-3.556,0.023-5.148-0.375c-1.402-0.354-2.626-1.375-3.984-1.973
		c-2.07-0.91-3.25-2.758-4.269-4.504c-2.212-3.789-2.379-8.041-1.685-12.281c0.258-1.572,0.941-3.09,1.564-4.578
		c0.275-0.656,0.842-1.209,1.342-1.746c1.77-1.897,2.319-4.83,5.287-5.764c1.145-0.359,2.02-1.568,3.016-2.393
		c0.094-0.077,0.16-0.252,0.246-0.258c3.893-0.254,7.488-2.66,11.561-1.594c0.908,2.049,3.707,0.586,4.769,2.629
		c0.424,0.812,2.111,0.016,2.693,1.611c0.496,1.361,2.219,2.256,2.783,3.611c1.395,3.348,2.891,6.994,1.55,10.508
		c-0.653,1.713-0.61,3.742-1.511,5.012c-1.321,1.863-1.748,4.342-4.051,5.672c-1.57,0.91-2.659,2.651-3.972,4.016
		c-0.121,0.126-0.287,0.238-0.451,0.293c-2.981,0.964-5.84,2.468-9.131,2.082C386.425,177.482,386.164,177.538,386.065,177.543z
		 M375.5,162.114c0.002,0,0.005,0,0.006,0c0,1.48-0.026,2.961,0.019,4.442c0.012,0.407,0.174,0.843,0.377,1.204
		c0.369,0.666,0.837,1.279,1.227,1.933c0.186,0.312,0.191,0.845,0.441,0.979c1.254,0.679,1.965,2.453,3.834,1.938
		c0.132-0.036,0.345,0.312,0.547,0.431c0.588,0.347,1.172,0.906,1.791,0.953c1.663,0.125,3.345,0.061,5.016-0.006
		c0.463-0.017,0.947-0.242,1.363-0.477c1.443-0.814,2.771-1.938,4.306-2.453c1.936-0.65,3.038-1.833,3.66-3.656
		c0.141-0.41,0.263-0.861,0.527-1.188c1.365-1.688,2.621-3.437,2.745-5.694c0.089-1.604,0.094-3.222,0.018-4.827
		c-0.072-1.592,0.28-3.268-1.469-4.458c-0.9-0.614-1.251-1.983-2.085-2.76c-0.836-0.774-1.925-1.658-2.97-1.75
		c-2.808-0.249-5.652-0.117-8.482-0.093c-0.406,0.002-0.87,0.152-1.204,0.384c-1.331,0.922-2.667,1.846-3.913,2.876
		c-1.811,1.495-3.932,2.779-4.244,5.463c-0.033,0.286-0.189,0.764-0.356,0.794c-1.439,0.265-1.071,1.419-1.132,2.294
		C375.438,159.663,375.5,160.89,375.5,162.114z"/>
	<path fill="#7E7E7E" d="M251.375,157.719c0,1.48,0.12,2.975-0.049,4.435c-0.086,0.757-0.679,1.457-1.051,2.179
		c-0.109,0.213-0.362,0.414-0.356,0.615c0.069,2.178-1.521,3.331-2.782,4.73c-0.879,0.977-1.523,2.162-2.379,3.162
		c-0.44,0.515-1.088,0.873-1.685,1.23c-1.497,0.9-3.008,1.778-4.535,2.625c-0.421,0.234-0.92,0.456-1.386,0.463
		c-3.464,0.049-6.957,0.301-10.381-0.068c-1.544-0.166-3.059-1.465-4.39-2.504c-1.507-1.176-2.796-2.633-4.174-3.971
		c-0.129-0.127-0.29-0.273-0.326-0.437c-0.566-2.613-1.246-5.214-1.595-7.856c-0.12-0.914,0.589-1.939,0.925-2.91
		c0.062-0.179,0.246-0.363,0.221-0.521c-0.397-2.497,1.424-4.347,1.952-6.58c0.202-0.854,0.98-1.675,1.688-2.294
		c1.989-1.734,4.47-3.062,6.01-5.113c1.391-1.852,3.016-1.101,4.526-1.545c0.683-0.201,1.302-0.609,1.963-0.893
		c0.441-0.188,0.935-0.518,1.354-0.454c1.927,0.301,4.229-1.035,5.733,1.257c0.09,0.137,0.493,0.115,0.744,0.094
		c2.49-0.218,3.979,1.204,5.579,2.9c1.337,1.418,2.136,3.162,3.228,4.505C252.14,153.137,250.822,155.495,251.375,157.719z
		 M236.294,146.479c-0.001-0.02-0.002-0.038-0.003-0.059c-1.479,0.076-2.958,0.143-4.436,0.233
		c-0.379,0.022-0.841,0.013-1.115,0.218c-1.304,0.977-2.482,2.137-3.847,3.014c-1.442,0.926-2.697,1.884-3.053,3.675
		c-0.067,0.338-0.286,0.649-0.453,0.963c-0.821,1.537-2.062,2.992-2.371,4.624c-0.413,2.174-0.12,4.486-0.089,6.74
		c0.006,0.428,0.091,0.938,0.335,1.266c0.803,1.08,1.6,2.195,2.576,3.109c1.971,1.844,3.813,3.648,6.912,3.951
		c3.31,0.32,5.892-1.547,8.9-1.93c0.112-0.014,0.23-0.115,0.314-0.203c1.484-1.58,3.124-3.047,4.394-4.785
		c1.013-1.387,1.668-3.064,2.303-4.686c0.495-1.262,0.809-2.617,1.016-3.96c0.116-0.754-0.097-1.577-0.256-2.351
		c-0.11-0.535-0.465-1.023-0.562-1.561c-0.247-1.348-0.372-2.479-1.396-3.795c-2.396-3.082-4.965-4.998-8.977-4.465
		C236.424,146.486,236.359,146.479,236.294,146.479z"/>
	<path fill="#7E7E7E" d="M686.659,143.325c0.72,0,1.443-0.188,1.963,0.055c0.527,0.246,1.269,0.996,1.197,1.398
		c-0.35,1.992,0.345,4.273-1.535,5.905c-0.298,0.256-0.18,0.981-0.269,1.487c-0.269,1.562,0.351,3.344-1.309,4.574
		c-0.321,0.237-0.185,1.096-0.251,1.67c-0.14,1.207,0.125,2.396-1.131,3.426c-0.612,0.502-0.368,2.051-0.507,3.125
		c-0.146,1.137,0.299,2.379-1.135,3.209c-0.454,0.264-0.334,1.545-0.451,2.365c-0.191,1.336,0.129,2.74-1.217,3.844
		c-0.513,0.422-0.34,1.68-0.476,2.533c-2.967,0.756-4.276-0.099-4.815-2.944c-0.104-0.55-0.643-1.021-1.001-1.511
		c-0.103-0.142-0.353-0.199-0.408-0.344c-0.642-1.635-1.145-3.336-1.913-4.908c-0.752-1.539-1.77-2.947-2.668-4.414
		c-0.099-0.157-0.197-0.314-0.28-0.48c-1.063-2.074-2.193-4.119-3.164-6.234c-0.734-1.605-1.256-3.308-1.896-4.957
		c-0.126-0.324-0.359-0.605-0.546-0.908c-0.273,0.275-0.638,0.508-0.806,0.836c-1.048,2.051-1.637,4.158-1.937,6.516
		c-0.34,2.682-1.728,5.229-2.661,7.833c-0.042,0.121-0.126,0.229-0.154,0.353c-0.613,2.592-1.463,5.156-1.771,7.783
		c-0.438,3.754-0.559,4.01-4.618,3.537c-0.148-1.207-0.408-2.264,0.769-3.396c0.623-0.6,0.441-2.049,0.599-3.116
		c0.166-1.134-0.344-2.532,1.255-3.089c0.089-0.031,0.2-0.225,0.179-0.312c-0.679-2.846,1.698-4.979,1.771-7.662
		c0.037-1.334-0.398-2.89,1.217-3.746c0.078-0.041,0.086-0.232,0.111-0.356c0.669-3.235,1.331-6.474,2.006-9.709
		c0.186-0.881-0.085-2.151,1.338-2.161c1.23-0.008,2.454-0.947,3.666,0.799c1.256,1.811,2.042,3.76,3.026,5.66
		c0.658,1.268,1.794,2.281,2.521,3.521c0.777,1.324,1.363,2.767,1.965,4.186c0.67,1.577,0.973,3.402,1.959,4.729
		c1.465,1.972,2.489,4.062,3.226,6.359c0.064,0.2,0.526,0.414,0.766,0.377c0.228-0.035,0.521-0.363,0.582-0.613
		c0.666-2.646,1.007-5.416,2.012-7.92c0.921-2.289,0.683-5.031,1.761-6.838c1.208-2.027,0.961-3.896,1.325-5.838
		c0.058-0.312,0.028-0.854,0.173-0.9C686.886,146.45,686.242,144.831,686.659,143.325z"/>
	<path fill="#7E7E7E" d="M423.951,177.075c0-0.494-0.128-1.008,0.019-1.103c1.927-1.255,0.862-3.507,1.649-4.953
		c1.313-2.414,0.736-5.22,1.841-7.392c0.946-1.867,0.964-3.693,1.448-5.527c0.687-2.598,1.715-5.102,2.567-7.657
		c0.198-0.599,0.464-1.267,0.371-1.853c-0.312-1.965,0.698-3.422,1.716-4.871c0.192-0.271,0.778-0.385,1.182-0.381
		c5.6,0.041,11.2,0.095,16.8,0.221c0.45,0.011,0.897,0.566,1.328,0.891c0.188,0.139,0.321,0.471,0.495,0.482
		c1.722,0.123,2.027,1.586,2.958,2.588c1.73,1.865,1.143,3.754,1.259,5.658c0.072,1.191,0.371,2.646-1.291,3.229
		c-0.089,0.03-0.178,0.213-0.178,0.325c0,2.985-2.691,3.312-4.473,4.538c-0.71,0.486-1.354,1.178-2.14,1.417
		c-0.891,0.272-1.904,0.144-3.123,0.201c0.19,1.771-0.86,3.416,1.195,5.005c1.185,0.914,1.467,2.994,2.165,4.544
		c0.222,0.492,0.529,0.95,0.714,1.455c0.324,0.892,0.582,1.81,0.869,2.714c-0.675,0.208-1.343,0.541-2.03,0.598
		c-1.669,0.135-2.599-0.469-3.054-2.338c-0.393-1.604-1.623-3.002-2.487-4.492c-0.028-0.047-0.148-0.066-0.152-0.106
		c-0.109-1.576-1.464-2.66-1.789-4.001c-0.403-1.655-1.177-2.014-2.59-2.001c-2.377,0.021-4.755,0.006-7.522,0.006
		c-1.161,4.224-2.314,8.425-3.518,12.802C426.933,177.075,425.547,177.075,423.951,177.075z M436.914,146.648
		c-0.594,1.103-1.33,2.067-1.637,3.151c-0.325,1.152-0.237,2.42-0.344,3.639c-0.021,0.251-0.021,0.654-0.164,0.725
		c-1.824,0.924-1.183,2.653-1.289,4.069c-0.18,2.415,0.109,2.458,2.548,2.679c2.654,0.244,5.062-0.637,7.577-1.098
		c2.241-0.411,4.632,0.312,6.577-1.747c1.296-1.37,3.033-2.269,2.753-4.547c-0.093-0.763-0.195-1.576-0.03-2.308
		c0.593-2.615-1.861-2.736-3.068-3.862c-0.333-0.312-0.804-0.666-1.215-0.67C444.702,146.629,440.782,146.648,436.914,146.648z"/>
	<path fill="#7E7E7E" d="M291.866,162.907c-0.029,1.396-0.817,2.779,1.053,3.358c0.084,0.024,0.13,0.208,0.175,0.325
		c0.664,1.74,0.884,3.945,2.104,5.094c1.3,1.229,0.668,3.5,2.679,4.092c0.173,0.053,0.151,0.762,0.268,1.449
		c-1.347,0-2.678,0.367-3.592-0.094c-1.108-0.559-2.018-1.715-2.739-2.797c-1.098-1.646-1.287-3.828-2.981-5.164
		c-0.197-0.155-0.204-0.58-0.255-0.887c-0.498-3-1.665-4.018-4.664-4.016c-1.868,0.001-3.734,0.025-5.601,0.049
		c-0.251,0.003-0.501,0.061-0.955,0.117c-0.587,2.689-1.074,5.439-1.814,8.117c-0.417,1.505-1.253,2.895-2.049,4.668
		c-0.371,0-1.105,0.148-1.729-0.051c-0.446-0.143-1.104-0.815-1.047-1.146c0.323-1.874-0.555-4.059,1.339-5.57
		c0.188-0.146,0.138-0.604,0.183-0.92c0.27-1.91,0.448-3.693,1.386-5.604c1.34-2.731,1.461-6.055,2.159-9.111
		c0.155-0.678,0.595-1.287,0.808-1.957c0.267-0.842,0.456-1.71,0.64-2.576c0.295-1.386-0.44-3.025,1.36-4.056
		c0.462-0.265,0.264-1.683,0.383-2.687c0.323-0.066,0.682-0.209,1.04-0.205c5.601,0.039,11.202,0.072,16.801,0.188
		c0.529,0.012,1.045,0.57,1.569,0.869c0.314,0.178,0.615,0.404,0.952,0.51c2.47,0.766,3.567,2.116,3.671,4.705
		c0.064,1.605,0.017,3.215,0.047,4.82c0.044,2.343-1.258,3.834-2.924,5.31C297.787,161.811,295.217,163.016,291.866,162.907z
		 M298.083,148.64c-5.09-3.771-10.671-1.339-15.94-2.11c-0.162,1.348,0.079,2.713-0.458,3.174c-1.499,1.291-1.03,2.916-1.302,4.428
		c-0.127,0.707-0.214,1.627-0.681,2.031c-1.359,1.17-0.911,2.601-0.605,3.855c0.106,0.436,1.426,0.792,2.201,0.812
		c2.956,0.074,5.889,0.166,8.771-1.002c1.725-0.697,3.958,0.504,5.454-1.656c1.077-1.555,2.756-2.68,3.957-4.166
		c0.367-0.455,0.255-2.039-0.002-2.135C297.78,151.236,298.396,149.765,298.083,148.64z"/>
	<path fill="#7E7E7E" d="M501.251,177.206c-0.048-0.98,0.028-1.83-0.161-2.613c-0.187-0.778-0.675-1.479-0.969-2.238
		c-0.198-0.51-0.368-1.057-0.412-1.6c-0.23-2.781-0.299-2.862-3.123-2.864c-3.926-0.002-7.859,0.146-11.775-0.046
		c-3.145-0.152-4.633,1.824-6.128,3.992c-1.183,1.715-2.12,3.736-3.665,5.019c-0.899,0.747-2.784,0.308-4.204,0.399
		c-0.104-0.467-0.237-0.754-0.169-0.815c1.095-0.983,1.521-2.295,2.086-3.604c0.387-0.895,1.703-1.344,2.336-2.19
		c0.852-1.146,1.396-2.513,2.165-3.728c0.557-0.877,1.193-1.729,1.921-2.467c1.163-1.18,2.533-2.115,2.839-3.979
		c0.107-0.659,0.985-1.178,1.477-1.791c1.497-1.875,2.994-3.75,4.456-5.653c0.585-0.763,1.229-1.536,1.584-2.411
		c0.725-1.781,1.721-3.287,3.382-4.303c0.048-0.029,0.067-0.104,0.099-0.159c0.442-0.854,0.725-2.271,1.359-2.452
		c1.542-0.443,3.251-0.31,5.263-0.431c0,1.646-0.137,2.996,0.047,4.302c0.128,0.916,0.719,1.762,1.045,2.66
		c0.189,0.525,0.346,1.09,0.377,1.643c0.093,1.735,0.028,3.483,0.214,5.205c0.087,0.808,0.628,1.561,0.924,2.352
		c0.193,0.516,0.378,1.048,0.46,1.589c0.366,2.401,0.118,4.756,1.264,7.218c1.062,2.283,0.579,5.297,0.679,7.993
		c0.011,0.313-0.565,0.853-0.941,0.931C502.946,177.311,502.166,177.206,501.251,177.206z M499.104,164.15
		c-0.116-0.181-0.23-0.36-0.349-0.542c-0.227-1.098-0.534-2.188-0.659-3.298c-0.187-1.657,0.299-3.675-0.488-4.906
		c-1.081-1.685-0.936-3.36-1.225-5.063c-0.063-0.379-0.035-0.795-0.183-1.137c-0.128-0.293-0.407-0.613-0.694-0.717
		c-0.168-0.062-0.583,0.217-0.712,0.441c-0.653,1.143-1.181,2.359-1.885,3.465c-0.535,0.839-1.292,1.531-1.913,2.318
		c-0.915,1.16-1.799,2.344-2.691,3.521c-0.343,0.452-0.711,0.89-1,1.372c-0.883,1.469-2.939,2.38-2.245,4.863
		C489.756,164.245,494.449,164.776,499.104,164.15z"/>
	<path fill="#7E7E7E" d="M324.099,177.209c-1.06,0-1.831,0.076-2.572-0.035c-0.342-0.051-0.922-0.508-0.895-0.717
		c0.233-1.899-0.491-4.02,1.172-5.619c0.132-0.127,0.266-0.297,0.305-0.467c0.66-2.857,1.272-5.729,1.973-8.576
		c0.209-0.851,0.755-1.614,0.97-2.465c0.281-1.104,0.365-2.258,0.57-3.383c0.198-1.089-0.484-2.562,1.282-3.002
		c0.098-0.025,0.205-0.357,0.17-0.52c-0.693-3.243,2.414-5.637,1.68-9.102c4.318,0,8.355-0.012,12.393,0.008
		c1.287,0.006,2.585,0.227,3.857,0.112c2.257-0.202,3.218,1.649,4.781,2.589c2.463,1.475,0.959,4.522,2.959,5.995
		c0.177,0.13,0.119,0.782-0.021,1.109c-0.792,1.847-1.57,3.706-2.499,5.485c-0.648,1.242-1.533,2.36-2.31,3.535
		c-0.068,0.104-0.1,0.283-0.188,0.315c-1.826,0.634-3.624,1.627-5.495,1.797c-4.094,0.37-8.224,0.382-12.34,0.411
		c-1.889,0.014-2.921,0.555-2.836,2.643c0.024,0.582-0.506,1.196-0.815,1.776c-0.142,0.265-0.472,0.462-0.534,0.731
		C325.167,172.193,324.67,174.562,324.099,177.209z M328.253,161.116c4.669,0,8.522,0.006,12.376-0.011
		c0.305-0.001,0.797-0.054,0.886-0.235c0.837-1.711,3.229-0.789,4.163-2.701c0.72-1.474,2.678-2.324,2.442-4.385
		c-0.17-1.49,0.435-2.959-1.313-4.343c-0.995-0.786-2.078-2.448-3.121-2.541c-3.799-0.34-7.648-0.134-11.576-0.134
		c-0.007,3.158-2.521,5.645-1.904,8.855c0.039,0.209-0.168,0.459-0.251,0.694C329.429,157.795,328.906,159.273,328.253,161.116z"/>
	<path fill="#7E7E7E" d="M176.392,150.667c-1.187,1.395-2.375,2.787-3.561,4.183c-0.081,0.094-0.184,0.196-0.212,0.312
		c-0.58,2.373-1.246,4.732-1.683,7.133c-0.215,1.182-0.107,2.455,0.062,3.656c0.089,0.633,0.685,1.178,0.94,1.809
		c0.346,0.857,0.584,1.757,0.892,2.707c1.485,1.017,3.064,2.125,4.68,3.177c0.346,0.226,0.823,0.321,1.245,0.336
		c1.543,0.056,3.1,0.171,4.628,0.021c0.83-0.082,1.613-0.652,2.412-1.013c0.111-0.05,0.208-0.249,0.285-0.233
		c2.024,0.373,2.926-1.758,4.65-2.088c0.414-0.08,0.711-0.666,1.134-0.824c0.429-0.158,1.036-0.246,1.406-0.057
		c0.527,0.272,0.99,0.772,1.324,1.277c0.193,0.293,0.229,1.066,0.077,1.152c-1.845,1.01-3.139,2.656-5.085,3.716
		c-4.207,2.29-8.362,1.161-12.557,1.348c-2.032,0.091-3.091-1.553-4.656-2.28c-0.437-0.201-0.779-0.654-1.226-0.779
		c-1.111-0.309-1.668-0.963-1.854-2.102c-0.074-0.457-0.52-0.861-0.832-1.265c-0.144-0.187-0.5-0.274-0.543-0.459
		c-0.595-2.615-1.969-5.401-1.488-7.813c0.462-2.32,0.828-4.791,1.613-7.058c0.612-1.765,1.736-3.435,2.942-4.89
		c1.593-1.922,3.48-3.6,5.268-5.355c0.148-0.146,0.493-0.093,0.747-0.135c0.317-0.055,0.763,0.006,0.931-0.182
		c1.408-1.572,3.836-0.912,5.042-1.86c1.752-1.379,3.391-1.063,5.111-1.062c0.874,0.002,1.747,0.621,2.62,0.961
		c0.236,0.09,0.494,0.297,0.704,0.256c2.374-0.455,3.977,1.27,5.748,2.236c1.168,0.637,2.129,2.096,2.583,3.397
		c0.202,0.581-1.002,1.751-1.741,2.478c-0.155,0.153-1.165-0.349-1.61-0.742c-1.207-1.064-2.256-2.315-3.503-3.326
		c-0.545-0.439-1.414-0.643-2.145-0.666c-2.636-0.078-5.299-0.243-7.904,0.053c-1.347,0.15-2.626,1.141-3.871,1.865
		c-0.989,0.576-1.878,1.324-2.812,1.996C176.231,150.584,176.312,150.625,176.392,150.667z"/>
	<path d="M327.024,61.062c0.546-1.827-0.708-3.834,1.322-5.166c0.164-0.107,0.178-0.465,0.232-0.713
		c0.588-2.713,1.17-5.427,1.762-8.185c6.541,0,12.751,0,19.124,0c0.032,1.837,0.746,3.593-0.811,5.263
		c-0.549,0.589-0.403,1.829-0.565,2.773c-0.201,1.167,0.375,2.514-1.24,3.319c-0.462,0.231-0.328,1.657-0.496,2.709
		C340.076,61.062,333.744,61.062,327.024,61.062z"/>
	<path fill="#7E7E7E" d="M538.231,146.597c-3.851,0-7.427,0-11.071,0c0-1.108,0-1.978,0-3.063c9.032,0,17.95,0,27.03,0
		c0,0.908,0,1.885,0,3.041c-3.238,0-6.322-0.004-9.405,0.002c-2.779,0.006-3.082,0.338-3.331,3.027
		c-0.132,1.419,0.206,2.889-1.337,4.087c-0.641,0.496-0.151,2.336-0.368,3.531c-0.146,0.798-0.623,1.536-0.973,2.292
		c-0.102,0.22-0.354,0.39-0.401,0.611c-0.588,2.68-1.105,5.375-1.741,8.043c-0.249,1.043-0.816,2.011-1.108,3.049
		c-0.275,0.977-0.455,1.996-0.547,3.008c-0.27,3.008-0.289,3.054-3.341,3c-0.384-0.006-0.765-0.057-1.273-0.098
		c0.015-1.201-0.771-2.512,0.85-3.326c0.183-0.092,0.318-0.396,0.363-0.627c0.623-3.125,1.182-6.264,1.86-9.375
		c0.205-0.932,0.744-1.785,1.119-2.678c0.121-0.291,0.261-0.59,0.297-0.896c0.233-1.869,0.53-3.625,1.476-5.395
		c0.979-1.832-0.011-4.381,1.726-6.186C538.356,148.333,538.167,147.545,538.231,146.597z"/>
	<path fill="#7E7E7E" d="M580.212,143.577c-0.437,1.797,0.552,3.696-1.431,5.153c-0.569,0.42-0.203,2.08-0.314,3.166
		c-0.111,1.079,0.34,2.399-1.179,2.938c-0.126,0.043-0.207,0.312-0.243,0.488c-0.581,2.862-1.109,5.733-1.748,8.581
		c-0.182,0.804-0.679,1.535-1.023,2.304c-0.127,0.285-0.272,0.57-0.341,0.871c-0.732,3.269-1.452,6.541-2.212,9.979
		c-1.349,0-2.727,0-4.224,0c0-0.492-0.138-1.191,0.021-1.268c1.507-0.728,1.173-2.106,1.318-3.334
		c0.156-1.308-0.451-2.899,1.298-3.652c0.076-0.032,0.09-0.232,0.113-0.356c0.608-3.108,1.176-6.228,1.848-9.323
		c0.206-0.942,0.7-1.824,1.076-2.728c0.072-0.17,0.278-0.297,0.314-0.468c0.65-2.988,1.427-5.961,1.883-8.981
		C575.795,144.125,577.025,143.045,580.212,143.577z"/>
</g>
</svg>
