<?xml version="1.0" encoding="iso-8859-1"?><!-- Generator: Adobe Illustrator 16.0.0, SVG Export Plug-In . SVG Version: 6.00 Build 0) --><!DOCTYPE svg PUBLIC "-//W3C//DTD SVG 1.1//EN" "http://www.w3.org/Graphics/SVG/1.1/DTD/svg11.dtd"><svg version="1.1" id="Layer_1" xmlns="http://www.w3.org/2000/svg" xmlns:xlink="http://www.w3.org/1999/xlink" x="0px" y="0px" width="2478.014px" height="305.642px" viewBox="394.847 1264.878 2478.014 305.642" style="enable-background:new 394.847 1264.878 2478.014 305.642;" xml:space="preserve"><g><path style="fill:#005288;" d="M972.503,1377.719H763.261l-7.474,5.979v186.075h57.542v-70.246l5.23-5.23h153.942	c38.858,0,56.794-10.461,56.794-37.363v-42.596C1029.297,1388.181,1011.361,1377.719,972.503,1377.719 M972.503,1446.469	c0,12.703-8.221,14.945-26.903,14.945H819.308l-5.979-5.23v-39.606l5.23-5.231h127.039c17.936,0,26.902,2.242,26.902,14.945	L972.503,1446.469L972.503,1446.469z"/><polyline style="fill:#005288;" points="1135.412,1412.841 1185.48,1486.075 1182.491,1492.801 1071.892,1492.801	1043.495,1527.924 1207.898,1527.924 1219.855,1534.649 1245.263,1569.772 1311.772,1569.772 1166.051,1375.477	"/><polyline style="fill:#005288;" points="1795.268,1532.407 1795.268,1480.098 1801.247,1474.866 1912.594,1474.866	1912.594,1441.985 1736.232,1441.985 1736.232,1569.772 1996.29,1569.772 1996.29,1536.891 1801.994,1536.891	"/><rect x="1736.232" y="1377.719" style="fill:#005288;" width="262.299" height="35.87"/><path style="fill:#005288;" d="M1444.043,1412.094h211.482c-2.989-26.902-20.177-34.375-62.025-34.375h-151.699	c-47.826,0-62.772,8.968-62.772,45.584v101.631c0,35.871,14.946,45.586,62.772,45.586H1593.5c42.596,0,59.036-8.221,60.531-35.871	h-209.988l-5.979-5.979v-112.092"/><path style="fill:#005288;" d="M613.803,1452.448H460.609l-4.484-5.23v-32.881l4.484-3.736h206.999l2.989-6.726	c-6.726-17.936-25.408-26.902-59.036-26.902H467.334c-47.826,0-62.772,8.967-62.772,45.583v21.672	c0,35.871,14.946,45.586,62.772,45.586h153.195l4.483,4.482v34.375l-3.736,5.232H445.663l0,0h-45.585c0,0-5.23,2.988-5.23,3.736	c3.736,25.408,20.924,32.133,62.024,32.133h156.932c47.826,0,63.52-8.967,63.52-45.584v-26.156	C677.323,1462.163,661.63,1452.448,613.803,1452.448"/><path style="fill:#005288;" d="M2163.682,1376.972h-86.686l-4.483,8.967l95.652,70.246c17.936-10.463,38.112-20.924,59.036-31.387"	/><path style="fill:#005288;" d="M2241.4,1508.495l84.444,61.277h86.686l3.736-8.221l-125.545-91.916	C2274.281,1482.338,2257.094,1495.043,2241.4,1508.495"/><path style="fill:#A7A9AC;" d="M2150.978,1569.772h-78.465l-6.727-10.463c53.059-51.562,290.696-271.265,807.074-294.431	C2872.861,1264.878,2440.179,1279.823,2150.978,1569.772"/></g></svg>