<?xml version="1.0" encoding="utf-8"?>
<!-- Generator: Adobe Illustrator 16.0.4, SVG Export Plug-In . SVG Version: 6.00 Build 0)  -->
<!DOCTYPE svg PUBLIC "-//W3C//DTD SVG 1.1//EN" "http://www.w3.org/Graphics/SVG/1.1/DTD/svg11.dtd">
<svg version="1.1" id="Layer_1" xmlns="http://www.w3.org/2000/svg" xmlns:xlink="http://www.w3.org/1999/xlink" x="0px" y="0px"
	 width="580.3px" height="153.552px" viewBox="0 0 580.3 153.552" enable-background="new 0 0 580.3 153.552" xml:space="preserve">
<g>
	<path fill-rule="evenodd" clip-rule="evenodd" fill="#015893" d="M42.72,0c0.31,0.147,0.608,0.385,0.933,0.429
		c2.162,0.297,4.351,0.442,6.488,0.856c1.683,0.327,3.358,0.841,4.941,1.501c2.77,1.153,5.568,2.305,8.17,3.782
		c3.168,1.8,5.904,4.104,7.476,7.616c1.346,3.009,2.249,6.125,1.611,9.313c-0.819,4.095-3.02,7.274-7.036,9.232
		c-3.625,1.767-7.302,2.137-11.173,1.785c-1.799-0.164-3.354-1.033-4.529-2.28c-1.776-1.888-0.921-5.302,1.409-6.347
		c1.212-0.543,2.414-1.11,3.635-1.63c2.347-1,3.654-4.475,2.088-6.071c-1.2-1.223-2.705-2.21-4.212-3.056
		c-2.615-1.467-5.54-1.986-8.497-2.233c-2.413-0.202-4.855-0.565-7.248-0.38c-3.717,0.286-7.323,1.143-10.692,2.956
		c-3.101,1.669-5.648,3.902-7.795,6.623c-2.675,3.39-3.505,7.339-2.335,11.397c0.555,1.924,2.045,3.705,3.465,5.22
		c1.447,1.544,3.201,2.908,5.049,3.945c2.43,1.363,5.03,2.47,7.652,3.429c2.896,1.06,5.88,1.895,8.86,2.704
		c3.638,0.987,7.314,1.83,10.965,2.767c2.307,0.592,4.595,1.259,6.9,1.86c1.144,0.299,2.312,0.5,3.458,0.793
		c2.054,0.525,4.104,1.065,6.146,1.638c3.716,1.042,7.454,1.973,11.016,3.552c2.922,1.294,5.785,2.611,8.511,4.318
		c2.859,1.79,5.529,3.746,7.892,6.139c1.065,1.08,2.248,2.062,3.196,3.234c1.217,1.505,2.399,3.076,3.329,4.767
		c1.324,2.409,2.499,4.913,3.548,7.455c0.489,1.184,0.62,2.542,0.761,3.837c0.236,2.173,0.684,4.397,0.445,6.533
		c-0.463,4.16-0.921,8.319-2.876,12.217c-1.467,2.925-3.277,5.567-5.505,7.823c-1.997,2.021-4.462,3.628-6.875,5.178
		c-2.182,1.403-4.534,2.564-6.885,3.675c-1.475,0.697-3.065,1.183-4.643,1.624c-2.828,0.792-5.664,1.579-8.537,2.178
		c-2.586,0.539-5.236,0.766-7.839,1.231c-3.888,0.695-7.806,0.951-11.744,1.055c-1.341,0.035-2.688,0.36-4.016,0.28
		c-2.804-0.167-5.601-0.495-8.396-0.796c-1.494-0.16-3.004-0.292-4.461-0.633c-2.503-0.585-4.996-1.247-7.447-2.022
		c-2.338-0.739-4.689-1.512-6.901-2.553c-1.915-0.9-3.691-2.127-5.439-3.339c-1.727-1.196-3.507-2.394-4.963-3.884
		c-1.926-1.973-3.688-4.142-5.277-6.396c-1.223-1.736-2.24-3.667-3.047-5.634c-1.304-3.177-1.49-6.569-1.214-9.963
		c0.322-3.955,1.822-7.437,4.068-10.728c2.813-4.123,6.623-6.966,10.85-9.381c0.538-0.308,1.151-0.527,1.757-0.665
		c2.567-0.581,5.188-1.098,7.797-0.681c2.05,0.328,4.171,0.564,5.933,2.03c1.441,1.198,2.406,3.189,2.023,4.839
		c-0.538,2.315-1.841,3.598-4.028,3.819c-1.665,0.168-3.349,0.189-5.024,0.181c-1.149-0.005-2.099,0.329-3.12,0.884
		c-2.973,1.617-5.1,3.879-6.221,7.086c-0.922,2.636-0.434,5.141,0.259,7.772c0.51,1.936,1.566,3.527,2.701,4.894
		c1.57,1.892,3.331,3.767,5.688,4.871c2.241,1.049,4.397,2.279,6.64,3.325c1.017,0.474,2.137,0.757,3.237,1.017
		c3.095,0.73,6.197,1.438,9.311,2.083c1.276,0.265,2.586,0.422,3.889,0.502c2.979,0.182,5.973,0.511,8.939,0.362
		c3.341-0.167,6.649-0.897,9.989-1.188c3.529-0.308,6.761-1.575,9.89-3.005c2.74-1.252,5.329-2.808,7.607-4.954
		c2.303-2.17,4.156-4.525,5.315-7.424c0.386-0.966,0.641-2.025,0.728-3.061c0.238-2.869,0.019-5.717-0.972-8.447
		c-1.204-3.317-2.812-6.378-5.064-9.166c-1.927-2.386-4.417-3.947-6.871-5.569c-1.666-1.101-3.591-1.812-5.407-2.681
		c-0.771-0.369-1.544-0.74-2.344-1.036c-3.026-1.121-6.045-2.268-9.103-3.297c-2.776-0.934-5.584-1.781-8.405-2.568
		c-2.381-0.665-4.82-1.125-7.2-1.795c-1.686-0.474-3.305-1.182-4.976-1.72c-1.526-0.491-3.096-0.847-4.62-1.345
		c-4.225-1.384-8.449-2.776-12.648-4.236c-2.572-0.894-5.183-1.746-7.616-2.942c-1.783-0.877-3.348-2.229-4.931-3.471
		c-1.128-0.886-2.244-1.842-3.149-2.945c-1.22-1.487-2.244-3.136-3.331-4.729c-1.362-1.997-1.935-4.263-2.234-6.625
		C0.397,35.405,0.151,35.108,0,34.8c0-1.68,0-3.36,0-5.04c0.333-1.515,0.8-3.016,0.967-4.549c0.213-1.955,1.009-3.672,1.706-5.458
		c1.165-2.98,2.994-5.532,5.066-7.889c1.916-2.18,4.283-3.875,6.793-5.346c0.605-0.354,1.182-0.773,1.82-1.05
		c1.996-0.865,3.987-1.759,6.035-2.485c1.949-0.692,3.939-1.322,5.962-1.733c2.088-0.424,4.239-0.537,6.357-0.822
		C35.071,0.378,35.41,0.147,35.76,0C38.08,0,40.4,0,42.72,0z"/>
	<path fill-rule="evenodd" clip-rule="evenodd" fill="#015893" d="M568.415,110.407c2.914,0,5.832-0.081,8.742,0.026
		c2.104,0.078,3.69,2.855,2.964,4.84c-1.221,3.33-3.803,5.019-6.991,6.126c-3.989,1.386-8.102,1.149-12.16,0.868
		c-3.938-0.272-7.914-0.764-11.741-1.7c-3.682-0.902-7.424-1.83-10.779-3.809c-1.703-1.005-3.604-1.672-5.341-2.626
		c-1.286-0.706-2.475-1.599-3.668-2.462c-2.421-1.75-4.766-3.611-7.239-5.282c-1.706-1.153-3.53-2.157-5.386-3.056
		c-2.026-0.981-3.493-0.09-3.697,2.19c-0.227,2.531,0.654,4.701,2.067,6.83c1.262,1.9,3.092,3.652,2.811,6.299
		c-0.15,1.418-2.021,3.519-3.444,3.686c-2.034,0.239-3.914,0.068-5.751-1.171c-1.629-1.098-2.938-2.387-4.024-3.966
		c-1.782-2.59-3.606-5.153-5.32-7.789c-1.548-2.379-2.999-4.823-4.443-7.266c-2.023-3.421-4.006-6.867-5.999-10.306
		c-1.443-2.491-2.88-4.985-4.313-7.481c-1.465-2.549-2.922-5.101-4.383-7.652c-2.126-3.714-4.272-7.417-6.373-11.146
		c-1.612-2.863-3.132-5.778-4.758-8.633c-1.073-1.884-2.298-3.681-3.39-5.555c-1.59-2.73-3.078-5.521-4.691-8.236
		c-1.251-2.104-2.691-4.096-3.932-6.207c-1.513-2.576-2.784-5.299-4.385-7.815c-1.276-2.005-1.977-4.171-2.394-6.43
		c-0.462-2.503,0.881-6.269,4.39-6.458c2.796-0.151,4.939,0.867,6.56,3.099c1.298,1.789,2.702,3.51,3.871,5.379
		c1.765,2.822,3.355,5.751,5.036,8.625c1.707,2.92,3.417,5.838,5.154,8.74c1.477,2.467,3.002,4.905,4.49,7.366
		c1.427,2.358,2.857,4.714,4.241,7.097c1.755,3.022,3.422,6.095,5.203,9.101c2.481,4.188,5.021,8.343,7.562,12.495
		c0.991,1.621,3.268,1.469,4.439-0.054c2.048-2.664,3.313-5.734,4.834-8.673c1.664-3.214,3.728-6.15,6.389-8.603
		c2.43-2.238,5.104-4.167,8.4-4.933c1.421-0.331,2.889-0.5,4.346-0.624c2.785-0.235,5.043,0.897,6.931,2.875
		c0.739,0.775,0.626,2.96-0.189,3.6c-2.723,2.135-5.465,4.246-8.165,6.41c-1.873,1.501-3.845,2.925-5.494,4.649
		c-2.795,2.923-4.29,6.497-3.529,10.578c0.422,2.265,1.263,4.41,2.769,6.387c1.511,1.985,3.206,3.671,5.145,5.13
		c1.57,1.182,3.304,2.156,5.008,3.147c1.981,1.153,3.962,2.326,6.03,3.308c2.919,1.385,5.879,2.701,8.892,3.864
		c3.055,1.18,6.173,2.212,9.307,3.167c2.133,0.649,4.318,1.228,6.522,1.524c3.268,0.439,6.572,0.6,9.861,0.878
		C568.402,110.643,568.409,110.525,568.415,110.407z"/>
	<path fill-rule="evenodd" clip-rule="evenodd" fill="#015893" d="M187.115,107.786c-0.409,2.859-0.808,6.367-1.435,9.834
		c-0.619,3.429-4.165,5.688-7.472,4.65c-1.826-0.574-3.547-1.594-4.853-3.163c-1.084-1.304-2.35-2.455-3.454-3.743
		c-1.113-1.299-1.971-2.856-3.227-3.982c-1.349-1.209-2.422-2.98-4.608-2.998c-0.826-0.007-1.45,0.298-1.71,1.007
		c-0.429,1.168-0.787,2.375-1.03,3.595c-0.454,2.276-0.485,4.692-1.282,6.831c-0.93,2.498-3.163,3.601-6.029,2.707
		c-3.312-1.032-5.988-2.972-8.364-5.422c-1.76-1.815-3.641-3.52-5.312-5.412c-1.828-2.069-3.451-4.318-5.211-6.45
		c-1.632-1.975-3.354-3.875-4.984-5.851c-1.119-1.357-2.154-2.783-3.214-4.188c-2.175-2.88-4.358-5.754-6.506-8.655
		c-1.997-2.696-4.024-5.375-5.904-8.151c-1.567-2.312-2.947-4.752-4.397-7.144c-0.91-1.5-1.884-2.971-2.675-4.533
		c-1.699-3.361-1.94-6.749,0.127-10.091c0.753-1.217,1.94-1.733,3.249-1.836c3.753-0.296,6.422,1.413,8.244,4.636
		c1.591,2.816,3.19,5.63,4.878,8.387c2.235,3.648,4.51,7.274,6.861,10.849c2.062,3.134,4.292,6.159,6.377,9.278
		c1.94,2.901,4.211,5.496,6.868,7.748c0.741,0.629,1.546,1.219,2.406,1.663c1.243,0.641,3.209-0.541,3.506-2.082
		c0.388-2.007,0.122-3.999-0.657-5.849c-1.147-2.727-2.383-5.425-3.744-8.052c-0.875-1.688-2.092-3.196-3.07-4.835
		c-2.288-3.837-4.624-7.65-6.741-11.581c-1.143-2.123-1.386-4.541-0.973-6.952c0.238-1.392,1.651-2.515,3.307-2.767
		c1.811-0.275,3.682-0.314,5.201,0.731c1.074,0.739,1.883,1.93,2.654,3.029c1.052,1.5,1.931,3.119,2.928,4.658
		c1.248,1.925,2.536,3.823,3.815,5.728c1.753,2.611,3.54,5.202,5.266,7.831c2.03,3.091,3.974,6.238,6.025,9.315
		c1.846,2.771,3.255,5.88,5.971,7.998c0.516,0.402,1.101,0.856,1.713,0.97c2.083,0.387,3.467-0.215,3.683-3.042
		c0.247-3.233-0.908-6.169-1.746-9.211c-0.782-2.842-2.401-5.218-3.57-7.835c-0.793-1.775-1.92-3.403-2.696-5.184
		c-1.649-3.785-3.975-7.395-3.347-11.838c0.256-1.814,1.827-3.423,3.643-3.604c2.355-0.233,4.381,0.42,6.014,2.205
		c1.722,1.882,3.03,4,4.075,6.332c1.085,2.42,2.457,4.712,3.572,7.12c0.832,1.796,1.491,3.676,2.162,5.542
		c0.608,1.693,1.165,3.406,1.675,5.131c0.433,1.467,0.784,2.959,1.141,4.447c0.479,1.99,0.953,3.981,1.375,5.983
		c0.147,0.698,0.13,1.43,0.193,2.146c0.212,2.413,0.423,4.827,0.642,7.239C186.663,102.985,186.859,105.042,187.115,107.786z"/>
	<path fill-rule="evenodd" clip-rule="evenodd" fill="#015893" d="M308.709,153.552c-2.071-0.362-4.677-0.736-7.246-1.289
		c-2.279-0.491-3.896-2.731-3.819-4.995c0.082-2.384,2.102-4.436,4.461-4.282c2.165,0.141,4.307,0.657,6.472,0.79
		c1.353,0.083,2.76-0.111,4.089-0.414c1.203-0.274,2.347-0.833,3.493-1.322c1.579-0.675,2.478-2.003,3.081-3.522
		c1.193-3.009,0.381-5.932-0.636-8.767c-0.763-2.128-1.659-4.237-2.756-6.21c-1.009-1.814-2.154-3.648-3.617-5.093
		c-2.13-2.103-4.177-1.79-6.333-0.088c-2.168,1.712-4.598,2.837-7.229,3.444c-2.828,0.652-5.676,0.754-8.61,0.183
		c-4.181-0.814-7.94-2.442-11.33-4.934c-2.151-1.581-4.219-3.286-6.219-5.054c-1.031-0.912-1.835-2.081-2.735-3.139
		c-0.754-0.887-1.537-1.751-2.238-2.678c-1.359-1.797-2.646-3.649-4.005-5.445c-2.71-3.581-4.209-7.761-5.864-11.855
		c-0.466-1.154-0.5-2.475-0.825-3.695c-1.097-4.128-1.207-8.342-0.907-12.547c0.151-2.123,0.944-4.192,1.229-6.314
		c0.291-2.168,1.535-3.848,2.634-5.559c0.723-1.127,1.958-1.953,3.044-2.811c0.754-0.596,1.605-1.113,2.486-1.5
		c3.131-1.375,6.438-1.961,9.839-1.694c2.714,0.213,5.424,0.569,8.108,1.027c1.66,0.283,3.194,0.021,4.598-0.713
		c2.433-1.272,4.549-0.806,6.499,0.886c0.396,0.344,0.694,0.952,0.778,1.479c0.319,2.018,0.153,4.122,1.221,5.998
		c0.769,1.35,1.472,2.738,2.213,4.104c1.095,2.019,2.18,4.042,3.3,6.046c1.823,3.262,3.705,6.492,5.495,9.771
		c0.965,1.769,1.774,3.622,2.691,5.417c0.411,0.803,0.96,1.535,1.369,2.339c1.6,3.144,3.368,6.223,4.689,9.481
		c1.164,2.87,2.296,5.719,3.879,8.394c1.52,2.568,2.907,5.216,4.306,7.855c1.751,3.304,3.312,6.72,5.23,9.923
		c1.259,2.103,2.018,4.356,2.431,6.654c0.333,1.854,0.021,3.869-0.26,5.775c-0.215,1.452-0.592,2.982-1.316,4.235
		c-1.692,2.924-3.898,5.31-7.043,6.939c-2.806,1.455-5.724,2.064-8.747,2.501C312.851,153.129,311.078,153.283,308.709,153.552z
		 M267.749,76.734c0.332,3.009,1.018,5.88,1.887,8.758c1.108,3.667,2.783,7.003,4.896,10.138c1.126,1.671,2.432,3.227,3.72,4.782
		c0.98,1.184,1.947,2.424,3.124,3.389c1.502,1.231,3.136,2.354,4.853,3.257c1.58,0.83,3.324,1.375,5.038,1.909
		c0.886,0.276,1.891,0.447,2.796,0.326c1.309-0.175,2.659-0.485,3.84-1.053c1.682-0.809,2.936-2.142,3.385-4.062
		c0.797-3.402-0.473-6.429-1.933-9.316c-1.995-3.942-4.208-7.777-6.398-11.618c-1.445-2.535-3.023-4.994-4.526-7.496
		c-1.299-2.164-2.561-4.351-3.871-6.507c-0.812-1.337-1.778-2.533-3.296-3.154c-1.874-0.766-3.709-1.427-5.802-0.662
		c-1.274,0.465-2.619,0.654-3.668,1.664c-0.933,0.897-1.667,1.828-2.292,3.018C268.379,72.239,268.101,74.472,267.749,76.734z"/>
	<path fill-rule="evenodd" clip-rule="evenodd" fill="#015893" d="M190.006,75.985c0.313-2.643,0.379-4.974,0.91-7.192
		c0.548-2.29,1.487-4.47,2.889-6.459c1.933-2.742,4.606-4.504,7.431-6.086c0.906-0.508,1.996-0.737,3.031-0.958
		c3.425-0.731,6.81-0.667,10.228,0.289c2.202,0.615,4.514,1.074,6.785,1.117c1.574,0.029,3.257-0.57,4.724-1.25
		c2.069-0.958,3.92-0.622,5.679,0.474c0.599,0.373,1.016,1.229,1.247,1.95c0.312,0.97,0.487,2.022,0.496,3.041
		c0.014,1.441,0.441,2.676,1.18,3.892c1.955,3.214,3.862,6.457,5.748,9.713c2.167,3.743,4.326,7.49,6.417,11.274
		c1.625,2.939,3.112,5.954,4.71,8.907c1.819,3.36,3.712,6.681,5.538,10.038c0.76,1.398,1.322,2.914,2.171,4.252
		c0.951,1.5,2.125,2.858,3.199,4.281c0.866,1.147,1.352,2.362,1.416,3.878c0.091,2.154-0.863,3.638-2.597,4.488
		c-2.428,1.19-5.079,1.365-7.578,0.227c-1.071-0.488-1.98-1.461-2.792-2.367c-1.975-2.206-4.071-3.953-7.31-2.902
		c-0.253,0.082-0.516,0.171-0.738,0.312c-1.801,1.141-3.534,2.405-5.403,3.419c-2.698,1.464-5.644,2.464-8.714,1.951
		c-3.26-0.545-6.511-1.313-9.446-3.021c-2.319-1.349-4.791-2.447-7.049-3.886c-2.417-1.539-4.716-3.278-6.962-5.062
		c-1.106-0.879-1.962-2.068-2.957-3.091c-2.538-2.61-4.587-5.558-6.085-8.871c-1.232-2.726-2.469-5.456-3.538-8.248
		c-0.601-1.569-0.974-3.248-1.26-4.91C190.834,82.031,190.426,78.854,190.006,75.985z M230.167,109.122
		c0.95-0.238,2.659-0.257,3.866-1.045c3.34-2.182,4.212-4.506,3.291-8.375c-0.722-3.026-2.29-5.729-3.806-8.423
		c-0.971-1.724-2.047-3.388-3.028-5.106c-1.711-3.001-3.366-6.035-5.083-9.034c-1.026-1.793-2.155-3.527-3.185-5.319
		c-1.379-2.4-2.571-4.843-5.404-6.062c-3.042-1.309-5.781-0.833-8.382,0.819c-2.924,1.857-4.005,4.865-4.184,8.129
		c-0.115,2.115,0.322,4.254,0.394,6.387c0.107,3.176,1.56,5.934,2.732,8.743c1.476,3.536,3.645,6.714,6.086,9.668
		c1.279,1.547,2.646,3.051,4.154,4.369c1.191,1.041,2.695,1.712,3.991,2.645C224,108.24,226.706,108.873,230.167,109.122z"/>
	<path fill-rule="evenodd" clip-rule="evenodd" fill="#015893" d="M478.287,100.607c-0.167,2.227-0.251,4.464-0.536,6.676
		c-0.127,0.983-0.5,2.016-1.036,2.849c-1.735,2.701-3.809,5.071-6.427,7.04c-3.036,2.283-6.41,3.78-10.01,4.567
		c-2.717,0.595-5.68,0.902-8.395,0.471c-4.14-0.659-8.272-1.542-12.214-3.264c-2.432-1.062-4.796-2.213-7.039-3.575
		c-1.877-1.139-3.566-2.597-5.287-3.979c-1.265-1.015-2.549-2.041-3.636-3.233c-1.513-1.659-2.894-3.446-4.249-5.241
		c-1.344-1.78-2.641-3.6-3.855-5.47c-0.99-1.526-1.844-3.142-2.722-4.737c-0.428-0.778-0.784-1.597-1.154-2.405
		c-2.567-5.616-3.629-11.479-3.055-17.655c0.268-2.874,1.052-5.523,2.743-7.854c1.746-2.408,4.083-3.824,7.146-3.531
		c2.611,0.25,4.342-1.315,6.112-2.761c2.259-1.844,4.82-2.899,7.67-3.299c1.365-0.192,2.754-0.453,4.115-0.38
		c1.684,0.09,3.348,0.505,5.022,0.756c0.709,0.106,1.453,0.058,2.136,0.247c1.733,0.479,3.459,1.001,5.156,1.598
		c3.463,1.219,6.532,3.175,9.321,5.502c2.427,2.025,4.749,4.202,6.917,6.501c3.269,3.47,6.122,7.306,8.306,11.542
		c1.298,2.519,2.01,5.334,3.1,7.969C477.971,92.694,478.156,96.627,478.287,100.607z M435.784,66.667
		c-0.942,0-1.669-0.062-2.381,0.017c-0.689,0.077-1.388,0.232-2.04,0.468c-1.061,0.384-2.144,0.765-3.117,1.323
		c-2.03,1.164-2.358,2.894-1.13,4.828c0.576,0.908,1.209,1.866,1.443,2.886c0.462,2.014-0.692,3.475-2.224,4.551
		c-2.043,1.436-3.057,3.236-2.413,5.02c0.765,2.121,1.625,4.21,2.519,6.281c1.646,3.808,4.456,6.773,7.305,9.663
		c1.803,1.828,3.635,3.662,6.011,4.838c1.77,0.876,3.371,2.106,5.171,2.903c1.517,0.671,3.212,0.938,4.825,1.395
		c3.044,0.864,6.08,0.364,8.886-0.673c1.92-0.71,3.681-1.972,5.096-3.752c1.442-1.813,2.057-3.809,2.324-5.913
		c0.405-3.175-0.033-6.368-1.194-9.334c-1.101-2.812-2.36-5.622-3.984-8.155c-2.08-3.243-4.64-6.165-7.789-8.487
		c-2.312-1.706-4.494-3.631-6.954-5.086C442.926,67.542,439.399,66.393,435.784,66.667z"/>
	<path fill-rule="evenodd" clip-rule="evenodd" fill="#015893" d="M362.839,122.698c-2.993-0.181-5.782-0.966-8.632-1.639
		c-2.759-0.652-5.192-1.954-7.724-3.039c-1.982-0.85-3.76-2.188-5.604-3.348c-3.784-2.381-7.078-5.343-10.034-8.678
		c-2.561-2.889-4.801-6.011-6.805-9.321c-1.904-3.145-3.501-6.434-4.688-9.891c-0.685-1.996-0.987-4.138-1.315-6.238
		c-0.269-1.719-0.551-3.49-0.418-5.207c0.25-3.243,0.844-6.372,2.406-9.388c1.759-3.399,4.536-5.635,7.492-7.635
		c2.571-1.739,5.491-3.012,8.741-3.151c1.459-0.062,2.934-0.476,4.364-0.338c3.634,0.352,7.276,0.818,10.51,2.757
		c1.508,0.905,3.176,1.625,4.486,2.758c2.286,1.98,4.305,4.24,5.784,6.941c2.769,5.055,3.617,10.489,3.051,16.132
		c-0.274,2.727-1,5.476-2.686,7.688c-1.385,1.817-2.787,3.746-4.946,4.817c-1.841,0.914-3.701,1.791-5.543,2.705
		c-1.01,0.5-1.933,1.013-2.508,2.149c-0.532,1.053-0.211,1.911,0.2,2.709c1.234,2.397,3.076,4.235,5.715,5.008
		c2.064,0.604,4.178,1.271,6.3,1.398c3.94,0.235,7.753-0.603,11.218-2.584c1.936-1.106,3.163-2.931,4.385-4.747
		c0.681-1.012,1.398-2.056,2.305-2.85c2.224-1.945,4.709-1.104,6.59,0.178c0.83,0.565,1.546,1.707,1.749,2.702
		c0.532,2.605,0.366,5.259-1,7.621c-1.043,1.804-2.193,3.587-3.554,5.157c-1.94,2.239-4.533,3.652-7.252,4.765
		c-1.262,0.516-2.588,0.942-3.926,1.191C368.626,121.854,365.727,122.247,362.839,122.698z M330.856,76.418
		c0.252,1.395,0.404,2.817,0.786,4.176c0.345,1.229,0.981,2.374,1.418,3.581c0.807,2.232,2.293,3.988,4.226,5.197
		c2.538,1.587,5.384,2.531,8.403,1.574c1.454-0.461,2.948-1.161,4.095-2.138c1.549-1.319,2.25-3.311,2.496-5.299
		c0.391-3.152-0.132-6.19-1.593-9.073c-0.987-1.949-2.237-3.643-3.889-5.062c-1.391-1.195-3.002-1.889-4.75-2.398
		c-3.297-0.96-6.677,0.149-8.659,2.424C331.68,71.361,330.722,73.686,330.856,76.418z"/>
	<path fill-rule="evenodd" clip-rule="evenodd" fill="#015893" d="M355.934,16.249c2.525-0.219,4.235,1.141,5.417,3.095
		c1.994,3.297,3.781,6.718,5.699,10.062c1.045,1.822,2.209,3.576,3.264,5.394c1.054,1.819,2.019,3.689,3.057,5.519
		c1.614,2.844,3.256,5.671,4.886,8.506c2.737,4.76,5.474,9.519,8.208,14.28c2.146,3.736,4.268,7.486,6.441,11.206
		c0.901,1.542,1.971,2.989,2.851,4.543c0.938,1.658,1.719,3.403,2.612,5.087c0.896,1.689,1.821,3.363,2.778,5.018
		c0.952,1.646,1.983,3.246,2.937,4.892c1.402,2.423,2.743,4.881,4.152,7.3c1.444,2.479,2.961,4.916,4.404,7.395
		c1.191,2.047,2.465,4.065,3.438,6.214c1.257,2.776,1.114,5.52-2.146,6.899c-1.053,0.446-2.247,0.711-3.389,0.761
		c-1.856,0.08-3.197-1.105-4.125-2.514c-2.673-4.059-5.246-8.186-7.771-12.339c-1.028-1.692-1.777-3.551-2.748-5.281
		c-1.18-2.103-2.463-4.148-3.697-6.221c-1.477-2.479-2.991-4.937-4.411-7.448c-0.961-1.699-1.702-3.525-2.692-5.206
		c-1.779-3.017-3.711-5.943-5.506-8.951c-1.917-3.212-3.744-6.478-5.621-9.714c-2.266-3.908-4.576-7.791-6.802-11.721
		c-1.779-3.14-3.443-6.344-5.196-9.499c-1.004-1.809-2.114-3.559-3.124-5.364c-1.311-2.34-2.576-4.707-3.85-7.067
		c-1.181-2.188-2.421-4.347-3.506-6.582c-1.57-3.237-0.875-6.323,2.677-7.995C354.687,16.276,355.343,16.331,355.934,16.249z"/>
	<path fill-rule="evenodd" clip-rule="evenodd" fill="#015893" d="M540.948,82.442c0.257,5.389-4.135,8.369-8.36,8.379
		c-4.302,0.011-8.664-3.487-8.489-8.887c0.121-3.731,3.684-7.953,8.744-7.818C537.227,74.233,541.39,77.606,540.948,82.442z
		 M532.752,75.296c-3.889-0.031-7.072,2.859-7.04,7.1c0.03,4.039,2.954,7.143,6.914,7.123c4.338-0.021,6.978-3.293,6.961-7.16
		C539.568,78.013,536.431,75.392,532.752,75.296z"/>
	<path fill-rule="evenodd" clip-rule="evenodd" fill="#015893" d="M529.488,77.587c1.679,0,3.193-0.05,4.702,0.018
		c0.964,0.043,2.114,1.099,2.185,1.83c0.204,2.143-0.227,2.889-2.253,3.615c0.776,1.297,1.534,2.562,2.326,3.884
		c-0.818,0.389-1.285,0.371-1.704-0.464c-0.572-1.142-1.251-2.25-2.044-3.247c-0.242-0.305-1.02-0.29-1.528-0.227
		c-0.211,0.026-0.486,0.549-0.514,0.865c-0.073,0.874,0.012,1.761-0.064,2.634c-0.021,0.236-0.396,0.44-0.607,0.659
		c-0.166-0.221-0.475-0.441-0.477-0.664C529.477,83.577,529.488,80.664,529.488,77.587z M532.621,78.656
		c-2.081-0.003-2.081-0.003-1.987,2.112c0.003,0.079-0.029,0.19,0.011,0.233c0.28,0.3,0.539,0.771,0.874,0.837
		c0.649,0.129,1.351,0.08,2.021,0.01c0.96-0.1,1.47-0.666,1.457-1.661C534.981,78.96,534.517,78.659,532.621,78.656z"/>
</g>
</svg>
